<svg xmlns="http://www.w3.org/2000/svg" viewBox="0 0 52.72 39.86"><defs><style>.cls-1{fill:#f5d7dd;}</style></defs><g id="Layer_2" data-name="Layer 2"><g id="Layer_1-2" data-name="Layer 1"><rect class="cls-1" width="52.72" height="39.86"/><path class="cls-1" d="M21.7,8.45V7a2.12,2.12,0,0,1,2.12-2.12H28.9A2.12,2.12,0,0,1,31,7V8.45"/><path d="M31,9.14a.69.69,0,0,1-.69-.69V7A1.43,1.43,0,0,0,28.9,5.58H23.82A1.43,1.43,0,0,0,22.39,7V8.45a.69.69,0,0,1-1.38,0V7a2.81,2.81,0,0,1,2.81-2.81H28.9A2.81,2.81,0,0,1,31.71,7V8.45A.69.69,0,0,1,31,9.14Z"/><rect class="cls-1" x="6.08" y="16.7" width="40.57" height="18.28"/><path d="M46.64,35.67H6.08a.69.69,0,0,1-.7-.69V16.7a.69.69,0,0,1,.7-.69H46.64a.69.69,0,0,1,.7.69V35A.69.69,0,0,1,46.64,35.67ZM6.77,34.29H46V17.39H6.77Z"/><polygon class="cls-1" points="48.03 17.39 26.36 22.94 4.69 17.39 4.69 8.45 48.03 8.45 48.03 17.39"/><path d="M26.36,23.63a.47.47,0,0,1-.17,0L4.51,18.06A.71.71,0,0,1,4,17.38V8.45a.7.7,0,0,1,.7-.7H48a.7.7,0,0,1,.7.7v8.93a.71.71,0,0,1-.52.68L26.53,23.61A.47.47,0,0,1,26.36,23.63Zm-21-6.78,21,5.37,21-5.37V9.14h-42ZM48,17.38h0Z"/><rect class="cls-1" x="23.43" y="19.67" width="5.86" height="5.86" rx="2.67"/><path d="M28.29,26.22H24.43a1.69,1.69,0,0,1-1.69-1.69V20.66A1.69,1.69,0,0,1,24.43,19h3.86A1.69,1.69,0,0,1,30,20.66v3.87A1.69,1.69,0,0,1,28.29,26.22Zm-3.86-5.86a.3.3,0,0,0-.31.3v3.87a.31.31,0,0,0,.31.3h3.86a.31.31,0,0,0,.31-.3V20.66a.3.3,0,0,0-.31-.3Z"/></g></g></svg>