<svg xmlns="http://www.w3.org/2000/svg" viewBox="0 0 61.35 38.77"><defs><style>.cls-1{fill:#f5d7dd;}</style></defs><g id="Layer_2" data-name="Layer 2"><g id="Layer_1-2" data-name="Layer 1"><rect class="cls-1" width="61.35" height="38.77"/><path d="M29.33,24a.91.91,0,0,1-.32-.06L5.36,15.09a.91.91,0,0,1-.59-.84.9.9,0,0,1,.58-.84L29.67,4.12a.89.89,0,0,1,.66,0l23,9.29a.87.87,0,0,1,.56.84.88.88,0,0,1-.58.83L29.64,23.93A.85.85,0,0,1,29.33,24ZM8.21,14.24l21.12,7.89,21.18-7.91L30,5.93Z"/><path d="M54.35,28H53.16V14.45H32.1v-1.2H53.76a.59.59,0,0,1,.59.6Z"/><path d="M53.76,28.64a1.58,1.58,0,0,1,1.57,1.57v2.93H52.18V30.21a1.58,1.58,0,0,1,1.58-1.57m0-1.8h0a3.37,3.37,0,0,0-3.37,3.37v4.72h6.74V30.21a3.37,3.37,0,0,0-3.37-3.37Z"/><path d="M29.33,32.42c-7,0-12.2-.52-14.54-3a4.9,4.9,0,0,1-1.28-3.82V21.77a.9.9,0,1,1,1.79,0v3.87a3.14,3.14,0,0,0,.8,2.53c2,2.16,7.55,2.45,13.23,2.45,11.68,0,14-1.91,14-5V21.77a.9.9,0,0,1,1.8,0v3.87C45.15,31.89,37.33,32.42,29.33,32.42Z"/><path class="cls-1" d="M29.76,15.23c-1.72,0-2.83-.71-2.83-1.2s1.11-1.21,2.83-1.21,2.84.72,2.84,1.21S31.49,15.23,29.76,15.23Z"/><path d="M29.76,13.42A3.34,3.34,0,0,1,32,14a3.41,3.41,0,0,1-2.19.6,3.4,3.4,0,0,1-2.18-.6,3.33,3.33,0,0,1,2.18-.61m0-1.2c-1.89,0-3.43.81-3.43,1.81s1.54,1.8,3.43,1.8S33.2,15,33.2,14s-1.54-1.81-3.44-1.81Z"/></g></g></svg>