<svg xmlns="http://www.w3.org/2000/svg" viewBox="0 0 513.92 215.42"><defs><style>.cls-1{fill:#1d184f;}.cls-2{fill:#f66672;}.cls-3{fill:#eda6b9;}.cls-4{fill:#6d99f5;}.cls-5{fill:none;stroke:#000;stroke-miterlimit:10;stroke-width:2px;}</style></defs><g id="Layer_2" data-name="Layer 2"><g id="Layer_1-2" data-name="Layer 1"><path class="cls-1" d="M41.24,99.89a66.49,66.49,0,0,1-15.85-2,55.47,55.47,0,0,1-14-5.32L5.67,97.29H0L7.07,63.06h5.74a49.48,49.48,0,0,0,2.94,10.4,36.51,36.51,0,0,0,5.54,9.59,27.12,27.12,0,0,0,8.47,7.22A23.61,23.61,0,0,0,41.5,93.15q9.68,0,15.49-4.71A15.19,15.19,0,0,0,62.79,76a12.74,12.74,0,0,0-3.3-8.69q-3.3-3.73-10.65-6.41l-9-3.24q-4.36-1.58-8.3-3.25a25,25,0,0,1-11.75-9.32,23.19,23.19,0,0,1-3.94-12.86,26.84,26.84,0,0,1,2.87-12.06A32.19,32.19,0,0,1,27,9.89,40.24,40.24,0,0,1,40,2.71,51.45,51.45,0,0,1,57.05,0,53.53,53.53,0,0,1,72.4,2.26,54,54,0,0,1,83.61,6.61l5-4h5.81L87.48,34.9H81.74a67.27,67.27,0,0,0-2.5-10.7,32.64,32.64,0,0,0-4.51-9,21,21,0,0,0-7-6.19,20.44,20.44,0,0,0-10-2.31,20.47,20.47,0,0,0-13.58,4.55A14.27,14.27,0,0,0,38.7,22.65,12.15,12.15,0,0,0,42,31.07q3.27,3.6,10.34,6.28,4.14,1.53,8.68,3.17t8.67,3.38a30.19,30.19,0,0,1,12.21,8.72,20.1,20.1,0,0,1,4.48,13.06,28.78,28.78,0,0,1-3.27,13.43,32.5,32.5,0,0,1-9.15,10.82,45.31,45.31,0,0,1-14.48,7.39A61.22,61.22,0,0,1,41.24,99.89Z"/><path class="cls-2" d="M165.61,76l-1.13,4.51c-3.38,1.33-6.07,2.35-8.09,3.05a21.32,21.32,0,0,1-7,1q-6.1,0-9.5-3A9.71,9.71,0,0,1,136.47,74c0-1,0-2,.13-3.18a28.8,28.8,0,0,1,.89-4.76l3.67-13.63c.37-1.47.65-2.8.84-4a20,20,0,0,0,.28-2.89,5.71,5.71,0,0,0-1.18-3.84c-.78-.93-2.11-1.39-4-1.39a14.23,14.23,0,0,0-5,1.36,26.3,26.3,0,0,0-7.21,5l-8.5,37H99.5l15.08-67.85a16.63,16.63,0,0,0,.31-1.64A9.63,9.63,0,0,0,115,13a5.9,5.9,0,0,0-.61-2.92,4.52,4.52,0,0,0-1.85-1.74,8.91,8.91,0,0,0-2.82-.93c-1.06-.17-2.29-.32-3.7-.46l.92-3.79,27-1.33.56.82-8.2,38.07h.36a41.18,41.18,0,0,1,9.9-6.58,25.81,25.81,0,0,1,11-2.39q5.7,0,8.9,3.13a10.18,10.18,0,0,1,3.21,7.58c0,.79-.06,1.89-.18,3.31a25.19,25.19,0,0,1-.85,4.53l-3.9,14.4a41.77,41.77,0,0,0-.92,4.1,22.2,22.2,0,0,0-.41,3.49c0,2,.44,3.35,1.31,4.1s2.4,1.12,4.59,1.12a13.58,13.58,0,0,0,3.48-.53A19.79,19.79,0,0,0,165.61,76Z"/><path class="cls-3" d="M206.06,77.31h-.41q-1.78,1.53-3.41,2.8a25.32,25.32,0,0,1-4.07,2.55,28.81,28.81,0,0,1-4.54,1.86,17.79,17.79,0,0,1-5.26.73q-8.91,0-13.43-5.24t-4.51-14.36a34.3,34.3,0,0,1,2.51-13.16,36.32,36.32,0,0,1,6.72-10.8,31.83,31.83,0,0,1,9.94-7.3,27.83,27.83,0,0,1,12-2.69,27.21,27.21,0,0,1,8.08,1.08,16.28,16.28,0,0,1,5.67,2.92l15.72-3.23.71.82-7.55,31.52c-.27,1.06-.56,2.38-.87,4a21.48,21.48,0,0,0-.46,3.61c0,2,.45,3.29,1.33,4s2.43,1.11,4.62,1.11a13.22,13.22,0,0,0,3.46-.57,23.84,23.84,0,0,0,2.84-.92L234,80.64q-5.07,2-8.11,3a21.63,21.63,0,0,1-7,1,15.16,15.16,0,0,1-8.43-2.07A10.94,10.94,0,0,1,206.06,77.31Zm6.1-32.5a13.42,13.42,0,0,0-.31-2.66,6.68,6.68,0,0,0-1.07-2.61,5.92,5.92,0,0,0-2.41-2,8.82,8.82,0,0,0-3.7-.69,9.41,9.41,0,0,0-6.23,2.43,22.64,22.64,0,0,0-5.05,6.47A37.1,37.1,0,0,0,190,55a47.71,47.71,0,0,0-1.23,10.83,26,26,0,0,0,.39,4.65,10.61,10.61,0,0,0,1.26,3.64,6.44,6.44,0,0,0,2.48,2.46,8.16,8.16,0,0,0,3.93.86,8.58,8.58,0,0,0,4.65-1.4,20.63,20.63,0,0,0,4.13-3.46Z"/><path class="cls-4" d="M307.3,75.88l-1.13,4.61q-5.09,2-8.11,3.05a21.44,21.44,0,0,1-7,1q-6.11,0-9.5-3A9.75,9.75,0,0,1,278.14,74c0-.82.05-1.87.13-3.15a28.53,28.53,0,0,1,.85-4.79l3.72-13.63c.38-1.47.66-2.8.85-4a18.7,18.7,0,0,0,.28-2.89,5.71,5.71,0,0,0-1.18-3.84c-.78-.93-2.11-1.39-4-1.39a14.28,14.28,0,0,0-5,1.36,26.3,26.3,0,0,0-7.21,5l-8.5,37H241.2l7.28-31.52c.21-1,.47-2.2.8-3.74a19.55,19.55,0,0,0,.48-3.84c0-1.95-.4-3.29-1.2-4s-2.27-1.1-4.39-1.1a11.82,11.82,0,0,0-3.36.51c-1.14.35-2.13.67-2.94,1L239,36.37q4.15-1.69,7.95-2.9a23.82,23.82,0,0,1,7.18-1.2q6,0,9,2.38a11.45,11.45,0,0,1,4,6.69h.36a42.51,42.51,0,0,1,10.37-7.1,26.32,26.32,0,0,1,11.4-2.54q5.69,0,8.89,3.13a10.21,10.21,0,0,1,3.2,7.58c0,.79-.06,1.89-.18,3.31a24.34,24.34,0,0,1-.85,4.53l-3.89,14.4a41.61,41.61,0,0,0-.93,4.1,22.2,22.2,0,0,0-.41,3.49c0,2,.44,3.33,1.31,4.05s2.4,1.07,4.59,1.07a13.21,13.21,0,0,0,3.48-.54A18.81,18.81,0,0,0,307.3,75.88Z"/><path class="cls-1" d="M379.71,75.88l-1.13,4.61q-5.08,2-8.11,3.05a21.44,21.44,0,0,1-7,1q-6.1,0-9.5-3A9.75,9.75,0,0,1,350.55,74c0-.82.05-1.87.13-3.15a28.53,28.53,0,0,1,.85-4.79l3.72-13.63c.38-1.47.66-2.8.85-4a18.7,18.7,0,0,0,.28-2.89,5.71,5.71,0,0,0-1.18-3.84c-.78-.93-2.11-1.39-4-1.39a14.23,14.23,0,0,0-5,1.36,26.3,26.3,0,0,0-7.21,5l-8.5,37H313.61l7.28-31.52c.21-1,.47-2.2.79-3.74a18.93,18.93,0,0,0,.49-3.84c0-1.95-.4-3.29-1.2-4s-2.27-1.1-4.39-1.1a11.82,11.82,0,0,0-3.36.51c-1.14.35-2.13.67-3,1l1.13-4.61q4.16-1.69,8-2.9a23.82,23.82,0,0,1,7.18-1.2q6,0,9,2.38a11.45,11.45,0,0,1,4,6.69h.36a42.51,42.51,0,0,1,10.37-7.1,26.32,26.32,0,0,1,11.4-2.54c3.79,0,6.75,1.05,8.88,3.13a10.18,10.18,0,0,1,3.21,7.58c0,.79-.06,1.89-.18,3.31a24.34,24.34,0,0,1-.85,4.53l-3.9,14.4c-.34,1.2-.64,2.57-.92,4.1a22.2,22.2,0,0,0-.41,3.49c0,2,.44,3.33,1.31,4.05s2.4,1.07,4.59,1.07a13.21,13.21,0,0,0,3.48-.54A18.81,18.81,0,0,0,379.71,75.88Z"/><path class="cls-2" d="M444.48,53A31.94,31.94,0,0,1,442,65.37a30.52,30.52,0,0,1-7,10.25,34.17,34.17,0,0,1-11.41,7.2A40.29,40.29,0,0,1,409,85.36q-10.91,0-17.63-5.82t-6.71-15.86A31.5,31.5,0,0,1,387.17,51a31.15,31.15,0,0,1,7.09-10.2,32.91,32.91,0,0,1,11.07-6.73,39.73,39.73,0,0,1,14.2-2.49q11.58,0,18.27,5.66T444.48,53Zm-18-5.79c0-4-.68-6.93-2-8.81a6.77,6.77,0,0,0-5.87-2.82,10.22,10.22,0,0,0-7.22,3.15A22.56,22.56,0,0,0,406,48a53.08,53.08,0,0,0-2.56,11,81.73,81.73,0,0,0-.77,10.58c0,4.14.68,7.13,2.05,9a6.91,6.91,0,0,0,5.94,2.79,9.5,9.5,0,0,0,7.28-3.43,25.3,25.3,0,0,0,4.87-8.46,57.42,57.42,0,0,0,2.71-10.89A73.81,73.81,0,0,0,426.45,47.23Z"/><path class="cls-3" d="M513.92,75.88l-1.13,4.61q-5.08,2-8.11,3.05a21.44,21.44,0,0,1-7,1q-6.11,0-9.5-3A9.75,9.75,0,0,1,484.76,74c0-.82.05-1.87.13-3.15a28.53,28.53,0,0,1,.85-4.79l3.72-13.63c.38-1.47.66-2.8.85-4a18.7,18.7,0,0,0,.28-2.89,5.71,5.71,0,0,0-1.18-3.84c-.78-.93-2.11-1.39-4-1.39a14.23,14.23,0,0,0-5,1.36,26.3,26.3,0,0,0-7.21,5l-8.5,37H447.82L455.1,52.2c.21-1,.47-2.2.79-3.74a18.93,18.93,0,0,0,.49-3.84c0-1.95-.4-3.29-1.2-4s-2.27-1.1-4.39-1.1a11.82,11.82,0,0,0-3.36.51c-1.14.35-2.13.67-2.95,1l1.13-4.61q4.15-1.69,7.95-2.9a23.82,23.82,0,0,1,7.18-1.2q6,0,9,2.38a11.45,11.45,0,0,1,4,6.69h.36a42.51,42.51,0,0,1,10.37-7.1,26.32,26.32,0,0,1,11.4-2.54c3.79,0,6.75,1.05,8.88,3.13A10.18,10.18,0,0,1,508,42.41c0,.79-.06,1.89-.18,3.31a24.34,24.34,0,0,1-.85,4.53l-3.9,14.4c-.34,1.2-.64,2.57-.92,4.1a22.2,22.2,0,0,0-.41,3.49c0,2,.44,3.33,1.31,4.05s2.4,1.07,4.59,1.07a13.21,13.21,0,0,0,3.48-.54A18.81,18.81,0,0,0,513.92,75.88Z"/><path class="cls-4" d="M153.26,115.71a30.2,30.2,0,0,1,10.52,10.91,31.85,31.85,0,0,1,3.8,15.93,49.58,49.58,0,0,1-4.53,21.21,46.77,46.77,0,0,1-12.81,16.56,58.28,58.28,0,0,1-19.1,10.55,74.86,74.86,0,0,1-24,3.66H62.42l1-4.42Q65,190,68,189.72a23.21,23.21,0,0,0,4.44-.81,7.25,7.25,0,0,0,3.6-2.42,9.61,9.61,0,0,0,1.72-3.75l13.86-59.95c.2-.85.35-1.55.43-2.12a9.9,9.9,0,0,0,.12-1.27,4.38,4.38,0,0,0-2.57-4,26.33,26.33,0,0,0-8.37-2.26l1-4.42h43.92a63.55,63.55,0,0,1,13.93,1.61A42.26,42.26,0,0,1,153.26,115.71Zm-17.9,57.72a57.39,57.39,0,0,0,6.35-15.92,76.71,76.71,0,0,0,2.06-18q0-11.73-5.32-18.65t-16-6.92c-1.41,0-2.81,0-4.21.09l-3.29.15-14.82,64.36a19.3,19.3,0,0,0-.42,2.22,15.43,15.43,0,0,0-.18,1.84q0,3.81,2.81,5.26a17.64,17.64,0,0,0,7.9,1.45A25.32,25.32,0,0,0,124.8,185,34.82,34.82,0,0,0,135.36,173.43Z"/><path class="cls-1" d="M227.44,151.31a14.83,14.83,0,0,1-.67,4.46,10.25,10.25,0,0,1-2,3.69,10.81,10.81,0,0,1-3.13,2.59,10.28,10.28,0,0,1-4.61.84,9,9,0,0,1-6-1.89,5.56,5.56,0,0,1-2.2-4.26,10.05,10.05,0,0,1,.64-3.79c.42-1.06,1.1-2.66,2-4.82a23,23,0,0,0-5.91,3.51,40.86,40.86,0,0,0-4.75,4.74l-8.09,36.28H175.79l7.07-31.51c.2-1,.47-2.2.79-3.74a18.93,18.93,0,0,0,.49-3.84c0-2-.38-3.34-1.15-4s-2.25-1.08-4.44-1.08a11.7,11.7,0,0,0-3.35.51c-1.15.34-2.13.67-2.95,1l1.13-4.62c2.76-1.12,5.4-2.09,7.93-2.89a23.73,23.73,0,0,1,7.16-1.21q6,0,9,2.39a11.49,11.49,0,0,1,4,6.69h.36a44.35,44.35,0,0,1,8.62-7.51,14.47,14.47,0,0,1,7.59-2.13,8.9,8.9,0,0,1,6.88,2.74Q227.44,146.14,227.44,151.31Z"/><path class="cls-2" d="M263.74,186.26h-.41c-1.2,1-2.33,2-3.41,2.8a25.91,25.91,0,0,1-4.08,2.55,27.39,27.39,0,0,1-4.53,1.85,17.51,17.51,0,0,1-5.26.74q-8.93,0-13.43-5.24t-4.52-14.37a34.29,34.29,0,0,1,2.52-13.15,36.68,36.68,0,0,1,6.71-10.81,32.12,32.12,0,0,1,9.95-7.29,27.83,27.83,0,0,1,12-2.69,27.21,27.21,0,0,1,8.08,1.08,16.23,16.23,0,0,1,5.66,2.92l15.72-3.23.72.82-7.55,31.52c-.27,1.06-.56,2.38-.87,4a20.47,20.47,0,0,0-.46,3.61c0,1.95.44,3.29,1.33,4s2.43,1.1,4.61,1.1a13,13,0,0,0,3.46-.56,23.53,23.53,0,0,0,2.85-.92l-1.13,4.61c-3.38,1.33-6.08,2.35-8.12,3a21.55,21.55,0,0,1-7,1.05,15.06,15.06,0,0,1-8.42-2.08A10.88,10.88,0,0,1,263.74,186.26Zm6.1-32.5a13.42,13.42,0,0,0-.31-2.66,6.68,6.68,0,0,0-1.07-2.61,5.88,5.88,0,0,0-2.42-2,8.74,8.74,0,0,0-3.69-.69,9.39,9.39,0,0,0-6.23,2.43,22.64,22.64,0,0,0-5.05,6.47,37.1,37.1,0,0,0-3.39,9.29,47.68,47.68,0,0,0-1.23,10.82,26.06,26.06,0,0,0,.39,4.66,10.82,10.82,0,0,0,1.25,3.64,6.58,6.58,0,0,0,2.49,2.45,8,8,0,0,0,3.93.87,8.67,8.67,0,0,0,4.65-1.4,20.91,20.91,0,0,0,4.13-3.46Z"/><path class="cls-3" d="M357.27,160.28a35.67,35.67,0,0,1-2.44,13.09,34,34,0,0,1-6.63,10.79,31.86,31.86,0,0,1-9.79,7.28,27.87,27.87,0,0,1-12,2.56,27,27,0,0,1-7.91-.95,16.12,16.12,0,0,1-5.2-2.69L310.2,204c-.11.41-.21.9-.31,1.47a8.25,8.25,0,0,0-.16,1.2,4.48,4.48,0,0,0,.52,2.16,3.15,3.15,0,0,0,1.53,1.44,17.75,17.75,0,0,0,3.64,1,33.21,33.21,0,0,0,4.15.59l-.82,3.54h-37l.82-3.54c.89-.07,2-.2,3.33-.38a23.51,23.51,0,0,0,3-.59,5.31,5.31,0,0,0,2.66-1.77,7.9,7.9,0,0,0,1.33-3.26l10.18-44.72c.21-1,.47-2.26.8-3.8a19.29,19.29,0,0,0,.48-3.79,5.58,5.58,0,0,0-1.13-3.92c-.75-.81-2.24-1.21-4.47-1.21a12.34,12.34,0,0,0-3.34.51c-1.2.34-2.19.67-3,1l1.13-4.62c2.78-1.12,5.43-2.09,8-2.89a24,24,0,0,1,7.2-1.21,20.64,20.64,0,0,1,5,.54,11,11,0,0,1,3.81,1.72,8.71,8.71,0,0,1,2.29,2.36,18.33,18.33,0,0,1,1.51,2.82h.41a36.46,36.46,0,0,1,9.15-6.05,21.26,21.26,0,0,1,8.54-1.95q8.9,0,13.36,5.25T357.27,160.28Zm-22.8,20.19a42.34,42.34,0,0,0,3.32-9.38,49.52,49.52,0,0,0,1.13-11,27.72,27.72,0,0,0-.36-4.63,10.4,10.4,0,0,0-1.28-3.67,6.44,6.44,0,0,0-2.48-2.46,7.91,7.91,0,0,0-3.91-.87,9.62,9.62,0,0,0-5.31,1.69,17.14,17.14,0,0,0-3.84,3.18l-6.35,28.13a8.54,8.54,0,0,0,2.05,5.87,7.38,7.38,0,0,0,5.88,2.33,9.44,9.44,0,0,0,6.11-2.46A20.35,20.35,0,0,0,334.47,180.47Z"/><path class="cls-4" d="M390.58,194.36a31.89,31.89,0,0,1-10.79-1.67,20.59,20.59,0,0,1-7.66-4.64,19.21,19.21,0,0,1-4.46-6.92,24.53,24.53,0,0,1-1.49-8.71,31.41,31.41,0,0,1,2.26-11.73,30.8,30.8,0,0,1,6.71-10.25,31.67,31.67,0,0,1,10.66-7.07,36.41,36.41,0,0,1,14.25-2.72q9.17,0,14,2.92a9.61,9.61,0,0,1,4.79,8.76,12.9,12.9,0,0,1-4.15,9.61,25.36,25.36,0,0,1-11.27,6,90,90,0,0,1-9.61,2.41c-2.65.48-5.89.93-9.71,1.33a38.87,38.87,0,0,0,.61,5.08,17.32,17.32,0,0,0,1.54,4.81,9.33,9.33,0,0,0,3.49,3.67,11,11,0,0,0,5.73,1.36,21.05,21.05,0,0,0,10.28-2.33,26.54,26.54,0,0,0,8.07-7.41l3.74,3.13a34.28,34.28,0,0,1-11.81,10.48A31.27,31.27,0,0,1,390.58,194.36Zm11.58-40.59a11.85,11.85,0,0,0-1.59-6.69,5.06,5.06,0,0,0-4.41-2.33q-3.95,0-7.45,6.43t-4.49,16.27c2-.24,4-.54,6-.92a22.71,22.71,0,0,0,4.71-1.33,12.07,12.07,0,0,0,5.54-4.36A13.09,13.09,0,0,0,402.16,153.77Z"/><path class="cls-1" d="M480.74,151.31a15.14,15.14,0,0,1-.66,4.46,10.27,10.27,0,0,1-2,3.69,10.55,10.55,0,0,1-3.13,2.59,10.28,10.28,0,0,1-4.61.84,9,9,0,0,1-6-1.89,5.59,5.59,0,0,1-2.2-4.26,10.05,10.05,0,0,1,.64-3.79c.43-1.06,1.1-2.66,2-4.82a22.89,22.89,0,0,0-5.92,3.51,41.65,41.65,0,0,0-4.75,4.74L446,192.66H429.09l7.07-31.51c.21-1,.47-2.2.8-3.74a19.67,19.67,0,0,0,.49-3.84c0-2-.39-3.34-1.16-4s-2.24-1.08-4.43-1.08a11.77,11.77,0,0,0-3.36.51c-1.14.34-2.13.67-2.95,1l1.13-4.62c2.76-1.12,5.41-2.09,7.93-2.89a23.84,23.84,0,0,1,7.17-1.21c4,0,7,.8,9,2.39a11.44,11.44,0,0,1,4,6.69h.36a44.65,44.65,0,0,1,8.62-7.51,14.47,14.47,0,0,1,7.59-2.13,8.9,8.9,0,0,1,6.88,2.74C479.91,145.22,480.74,147.86,480.74,151.31Z"/><path d="M198.39,105.36c2.45,0,4.58.27,6.53,1.71a8.68,8.68,0,0,1,3.37,7.09,8.36,8.36,0,0,1-3.53,7.08,10,10,0,0,1-6.42,1.69H194.7V105.36Zm-1,15h1.16a7.62,7.62,0,0,0,4.66-1.24,6.2,6.2,0,0,0,2.4-5,6.27,6.27,0,0,0-2.37-5.06,7.92,7.92,0,0,0-4.69-1.21h-1.16Z"/><path d="M222.41,107.89h-7v4.45h6.79v2.53h-6.79v5.53h7v2.53h-9.69V105.36h9.69Z"/><path d="M227.84,105.36l4.9,12.25,4.9-12.25h2.9l-7.8,18.7L225,105.36Z"/><path d="M253.5,107.89h-7v4.45h6.8v2.53h-6.8v5.53h7v2.53h-9.7V105.36h9.7Z"/><path d="M260.72,105.36v15h5.16v2.53H258V105.36Z"/><path d="M286.11,114.16a9.14,9.14,0,1,1-9.14-9.11A8.92,8.92,0,0,1,286.11,114.16Zm-2.69,0A6.46,6.46,0,1,0,277,120.8,6.29,6.29,0,0,0,283.42,114.16Z"/><path d="M294.41,105.36a6.87,6.87,0,0,1,3.84,1,5.07,5.07,0,0,1,2.19,4.27,5,5,0,0,1-1.71,3.84,6.34,6.34,0,0,1-4.3,1.37h-1.21v7.14h-2.68V105.36Zm-1.19,8h1.21c2.32,0,3.43-1.13,3.43-2.76,0-1-.4-2.71-3.45-2.71h-1.19Z"/><path d="M313.92,107.89h-7v4.45h6.79v2.53h-6.79v5.53h7v2.53h-9.69V105.36h9.69Z"/><path d="M321.59,105.36a7.93,7.93,0,0,1,4.64,1,4.9,4.9,0,0,1,2.08,4.13,4.82,4.82,0,0,1-3.9,4.9l5.48,7.51h-3.24l-5-7.19h-.48v7.19h-2.68V105.36Zm-.45,8.06H322c.73,0,3.74-.08,3.74-2.87,0-2.48-2.35-2.71-3.67-2.71h-.92Z"/><path d="M354.51,116.48l-2.08,2.39,3.24,4.06h-3.26l-1.74-2.16a11.19,11.19,0,0,1-1.47,1.29,6.19,6.19,0,0,1-3.85,1.21,4.9,4.9,0,0,1-5.27-5,5.27,5.27,0,0,1,2.53-4.53c.48-.34,1.24-.87,1.4-1a5.44,5.44,0,0,1-1.74-3.64,4.2,4.2,0,0,1,8.37-.26,3.67,3.67,0,0,1-.76,2.29,10.73,10.73,0,0,1-2.19,2L350.8,117l2-2.27Zm-8.92-1.82a7.88,7.88,0,0,0-1.93,1.45,3.26,3.26,0,0,0-.94,2.23,2.64,2.64,0,0,0,2.74,2.67,3.46,3.46,0,0,0,2-.69,14.73,14.73,0,0,0,1.63-1.45Zm1.52-4.08a2.23,2.23,0,0,0,1.06-1.74,1.56,1.56,0,0,0-1.74-1.58,1.52,1.52,0,0,0-1.69,1.55,2.51,2.51,0,0,0,.61,1.53l.79,1Z"/><path d="M369.72,105.36c2.45,0,4.58.27,6.53,1.71a8.71,8.71,0,0,1,3.37,7.09,8.36,8.36,0,0,1-3.53,7.08,10.08,10.08,0,0,1-6.43,1.69H366V105.36Zm-1,15h1.15a7.65,7.65,0,0,0,4.67-1.24,6.51,6.51,0,0,0,0-10.06,7.92,7.92,0,0,0-4.69-1.21h-1.15Z"/><path d="M393.74,107.89h-7v4.45h6.8v2.53h-6.8v5.53h7v2.53h-9.69V105.36h9.69Z"/><path d="M405.86,109.26a2.71,2.71,0,0,0-2.69-1.74,2.19,2.19,0,0,0-2.48,2.11c0,.52.19,1.45,1.9,2.13l1.76.71c3.24,1.32,4.14,3.16,4.14,5.16a5.41,5.41,0,0,1-5.66,5.64,5.15,5.15,0,0,1-4.14-1.76,5.67,5.67,0,0,1-1.47-3.43l2.66-.58a3.73,3.73,0,0,0,.74,2.24,2.77,2.77,0,0,0,2.29,1.06,2.82,2.82,0,0,0,2.89-3c0-1.79-1.37-2.52-2.52-3l-1.69-.71c-1.45-.6-3.58-1.82-3.58-4.45,0-2.37,1.84-4.63,5.13-4.63a5.19,5.19,0,0,1,3.53,1.18A5.9,5.9,0,0,1,408,108Z"/><path d="M415.6,105.36v17.57h-2.68V105.36Z"/><path d="M430,113.79h7.24v.13a9.6,9.6,0,0,1-2.61,7.11,8.17,8.17,0,0,1-6,2.24,7.63,7.63,0,0,1-6-2.4,9.2,9.2,0,0,1,6.55-15.82,9.57,9.57,0,0,1,4.59,1.1,8.08,8.08,0,0,1,2.84,2.64l-2.13,1.5a7.3,7.3,0,0,0-2.16-2,6,6,0,0,0-3.11-.76,6.31,6.31,0,0,0-4.63,1.82,7.3,7.3,0,0,0-.06,9.69,5.72,5.72,0,0,0,4.4,1.77,5.25,5.25,0,0,0,3.92-1.56,4.71,4.71,0,0,0,1.48-3H430Z"/><path d="M441.63,122.93V104.18l12.75,13.35V105.36h2.68V124l-12.75-13.35v12.27Z"/><path d="M472,107.89h-7v4.45h6.79v2.53H465v5.53h7v2.53h-9.69V105.36H472Z"/><path d="M479.69,105.36a7.93,7.93,0,0,1,4.64,1,4.9,4.9,0,0,1,2.08,4.13,4.82,4.82,0,0,1-3.9,4.9l5.48,7.51h-3.24l-5-7.19h-.48v7.19h-2.68V105.36Zm-.45,8.06h.85c.73,0,3.74-.08,3.74-2.87,0-2.48-2.35-2.71-3.66-2.71h-.93Z"/><line class="cls-5" x1="494.98" y1="115.1" x2="506.86" y2="115.1"/><line class="cls-5" x1="172.98" y1="115.1" x2="184.86" y2="115.1"/></g></g></svg>