<svg xmlns="http://www.w3.org/2000/svg" viewBox="0 0 580.52 232.57"><defs><style>.cls-1{fill:#1d184f;}.cls-2{fill:#f66672;}.cls-3{fill:#eda6b9;}.cls-4{fill:#6d99f5;}.cls-5{fill:none;stroke:#000;stroke-miterlimit:10;stroke-width:2px;}.cls-6{fill:#ed9720;}</style></defs><g id="Layer_2" data-name="Layer 2"><g id="Layer_1-2" data-name="Layer 1"><path class="cls-1" d="M66.72,117a66.49,66.49,0,0,1-15.85-2,55.09,55.09,0,0,1-14-5.32l-5.74,4.67H25.48l7.07-34.23h5.74a48.88,48.88,0,0,0,2.94,10.4,36.57,36.57,0,0,0,5.54,9.6,27.38,27.38,0,0,0,8.47,7.22A23.69,23.69,0,0,0,67,110.3q9.67,0,15.48-4.71a15.2,15.2,0,0,0,5.81-12.4A12.74,12.74,0,0,0,85,84.5c-2.21-2.49-5.75-4.63-10.65-6.41l-9-3.24Q60.91,73.28,57,71.61a25.12,25.12,0,0,1-11.74-9.32,23.14,23.14,0,0,1-3.94-12.87,26.87,26.87,0,0,1,2.87-12.06A32.19,32.19,0,0,1,52.44,27a40.43,40.43,0,0,1,13-7.18,51.41,51.41,0,0,1,17-2.71,53.53,53.53,0,0,1,15.35,2.26,54.6,54.6,0,0,1,11.21,4.35l5-4h5.81L113,52.05h-5.74a67.27,67.27,0,0,0-2.5-10.7,32.64,32.64,0,0,0-4.51-9,21,21,0,0,0-7-6.19,20.44,20.44,0,0,0-10-2.31,20.45,20.45,0,0,0-13.58,4.55A14.27,14.27,0,0,0,64.18,39.8a12.13,12.13,0,0,0,3.27,8.42q3.27,3.62,10.34,6.28,4.14,1.55,8.68,3.18t8.67,3.37a30.19,30.19,0,0,1,12.21,8.72,20.09,20.09,0,0,1,4.47,13.06,28.63,28.63,0,0,1-3.27,13.43,32.6,32.6,0,0,1-9.14,10.83,45.29,45.29,0,0,1-14.48,7.38A61.27,61.27,0,0,1,66.72,117Z" transform="translate(-0.37)"/><path class="cls-2" d="M191.09,93.13,190,97.64q-5.07,2-8.09,3a21.34,21.34,0,0,1-7,1q-6.09,0-9.5-3a9.73,9.73,0,0,1-3.4-7.56c0-.95,0-2,.13-3.18a29,29,0,0,1,.89-4.76l3.66-13.63c.38-1.47.66-2.79.85-4a20.28,20.28,0,0,0,.28-2.9,5.71,5.71,0,0,0-1.18-3.84c-.78-.92-2.11-1.39-4-1.39a14.23,14.23,0,0,0-5,1.36,26.3,26.3,0,0,0-7.21,5l-8.5,37H125L140.06,33a16.1,16.1,0,0,0,.31-1.64,9.63,9.63,0,0,0,.1-1.28,5.9,5.9,0,0,0-.61-2.92A4.52,4.52,0,0,0,138,25.44a8.91,8.91,0,0,0-2.82-.92c-1.06-.17-2.3-.33-3.7-.46l.92-3.8,27-1.33.56.82-8.2,38.07h.36a41.48,41.48,0,0,1,9.9-6.58,25.81,25.81,0,0,1,11-2.39q5.7,0,8.9,3.13a10.17,10.17,0,0,1,3.2,7.58c0,.79-.06,1.89-.18,3.31a25.38,25.38,0,0,1-.84,4.54l-3.9,14.4a40.89,40.89,0,0,0-.92,4.09,22.2,22.2,0,0,0-.41,3.49c0,2,.43,3.35,1.31,4.1s2.4,1.13,4.58,1.13a13.22,13.22,0,0,0,3.49-.54A19.79,19.79,0,0,0,191.09,93.13Z" transform="translate(-0.37)"/><path class="cls-3" d="M231.54,94.46h-.41c-1.2,1-2.33,2-3.41,2.8a25.45,25.45,0,0,1-4.08,2.55,26.59,26.59,0,0,1-4.53,1.86,17.78,17.78,0,0,1-5.26.74q-8.92,0-13.43-5.25T195.91,82.8a34.34,34.34,0,0,1,2.51-13.16,36.45,36.45,0,0,1,6.72-10.8,32,32,0,0,1,9.94-7.3,27.83,27.83,0,0,1,12-2.69,27.21,27.21,0,0,1,8.08,1.08,16.37,16.37,0,0,1,5.67,2.92l15.72-3.23.71.82L249.71,82c-.27,1.06-.56,2.38-.87,4a20.47,20.47,0,0,0-.46,3.61c0,1.95.44,3.29,1.33,4s2.43,1.1,4.61,1.1a13.1,13.1,0,0,0,3.46-.57,23.53,23.53,0,0,0,2.85-.92l-1.13,4.61c-3.38,1.34-6.08,2.35-8.12,3a21.55,21.55,0,0,1-7,1,15.14,15.14,0,0,1-8.42-2.07A10.94,10.94,0,0,1,231.54,94.46Zm6.1-32.5a13.51,13.51,0,0,0-.31-2.66,6.68,6.68,0,0,0-1.07-2.61,6,6,0,0,0-2.41-2,8.82,8.82,0,0,0-3.7-.69,9.41,9.41,0,0,0-6.23,2.43,22.55,22.55,0,0,0-5,6.48,37,37,0,0,0-3.39,9.28A47.77,47.77,0,0,0,214.25,83a26.22,26.22,0,0,0,.39,4.66,10.84,10.84,0,0,0,1.25,3.63,6.53,6.53,0,0,0,2.49,2.46,8,8,0,0,0,3.93.87A8.59,8.59,0,0,0,227,93.21a21.21,21.21,0,0,0,4.13-3.45Z" transform="translate(-0.37)"/><path class="cls-4" d="M332.78,93l-1.13,4.61q-5.08,2-8.11,3a21.44,21.44,0,0,1-7,1q-6.12,0-9.5-3a9.75,9.75,0,0,1-3.39-7.56c0-.82.05-1.87.13-3.15a28.53,28.53,0,0,1,.85-4.79l3.72-13.63c.38-1.47.66-2.79.85-4a18.92,18.92,0,0,0,.28-2.9,5.71,5.71,0,0,0-1.18-3.84c-.78-.92-2.11-1.39-4-1.39a14.23,14.23,0,0,0-5,1.36,26.3,26.3,0,0,0-7.21,5l-8.5,37H266.67L274,69.35c.21-.95.47-2.2.79-3.74a18.93,18.93,0,0,0,.49-3.84q0-2.93-1.2-4c-.81-.74-2.27-1.11-4.39-1.11a11.84,11.84,0,0,0-3.36.52c-1.14.34-2.13.66-3,1l1.13-4.61c2.77-1.13,5.42-2.09,7.95-2.9a23.82,23.82,0,0,1,7.18-1.2q6,0,9,2.38a11.45,11.45,0,0,1,4,6.69H293a42.51,42.51,0,0,1,10.37-7.1,26.32,26.32,0,0,1,11.4-2.54q5.69,0,8.88,3.13a10.18,10.18,0,0,1,3.21,7.58c0,.79-.06,1.89-.18,3.31a24.59,24.59,0,0,1-.85,4.54l-3.9,14.4c-.34,1.19-.64,2.56-.92,4.09a22.2,22.2,0,0,0-.41,3.49c0,2,.44,3.33,1.31,4s2.4,1.07,4.59,1.07A13.58,13.58,0,0,0,330,94,19.79,19.79,0,0,0,332.78,93Z" transform="translate(-0.37)"/><path class="cls-1" d="M405.19,93l-1.13,4.61q-5.08,2-8.11,3a21.44,21.44,0,0,1-7,1q-6.12,0-9.5-3A9.75,9.75,0,0,1,376,91.13c0-.82,0-1.87.13-3.15a28.53,28.53,0,0,1,.85-4.79l3.72-13.63c.38-1.47.66-2.79.85-4a18.92,18.92,0,0,0,.28-2.9,5.71,5.71,0,0,0-1.18-3.84c-.78-.92-2.11-1.39-4-1.39a14.23,14.23,0,0,0-5,1.36,26.3,26.3,0,0,0-7.21,5l-8.5,37H339.08l7.29-31.52c.2-.95.47-2.2.79-3.74a18.93,18.93,0,0,0,.49-3.84q0-2.93-1.2-4c-.81-.74-2.27-1.11-4.39-1.11a11.84,11.84,0,0,0-3.36.52c-1.14.34-2.13.66-2.95,1l1.13-4.61c2.77-1.13,5.42-2.09,7.95-2.9a23.82,23.82,0,0,1,7.18-1.2q6,0,9,2.38a11.45,11.45,0,0,1,4,6.69h.36a42.51,42.51,0,0,1,10.37-7.1,26.32,26.32,0,0,1,11.4-2.54q5.68,0,8.88,3.13a10.18,10.18,0,0,1,3.21,7.58c0,.79-.06,1.89-.18,3.31a25.45,25.45,0,0,1-.85,4.54l-3.9,14.4a40.89,40.89,0,0,0-.92,4.09,22.2,22.2,0,0,0-.41,3.49c0,2,.44,3.33,1.31,4s2.4,1.07,4.59,1.07a13.58,13.58,0,0,0,3.48-.53A19.79,19.79,0,0,0,405.19,93Z" transform="translate(-0.37)"/><path class="cls-2" d="M470,70.17a31.73,31.73,0,0,1-2.46,12.35,30.23,30.23,0,0,1-7,10.25,34,34,0,0,1-11.4,7.2,40.29,40.29,0,0,1-14.68,2.54q-10.92,0-17.63-5.82t-6.71-15.86a31.5,31.5,0,0,1,2.54-12.66A31,31,0,0,1,419.74,58a32.77,32.77,0,0,1,11.07-6.74A39.69,39.69,0,0,1,445,48.75q11.58,0,18.27,5.67T470,70.17Zm-18-5.79q0-6-2-8.81A6.77,6.77,0,0,0,444,52.75a10.21,10.21,0,0,0-7.22,3.15,22.63,22.63,0,0,0-5.33,9.25,53.23,53.23,0,0,0-2.56,11,81.86,81.86,0,0,0-.77,10.58q0,6.21,2.05,9a6.91,6.91,0,0,0,5.94,2.79,9.47,9.47,0,0,0,7.28-3.43,25.3,25.3,0,0,0,4.87-8.46A57.42,57.42,0,0,0,451,75.73,73.81,73.81,0,0,0,451.93,64.38Z" transform="translate(-0.37)"/><path class="cls-3" d="M539.4,93l-1.13,4.61q-5.09,2-8.11,3a21.44,21.44,0,0,1-7,1q-6.12,0-9.5-3a9.75,9.75,0,0,1-3.39-7.56c0-.82,0-1.87.13-3.15a28.53,28.53,0,0,1,.85-4.79l3.72-13.63c.38-1.47.66-2.79.85-4a20.28,20.28,0,0,0,.28-2.9,5.71,5.71,0,0,0-1.18-3.84c-.78-.92-2.11-1.39-4-1.39a14.23,14.23,0,0,0-5,1.36,26.3,26.3,0,0,0-7.21,5l-8.5,37H473.29l7.29-31.52c.2-.95.47-2.2.79-3.74a18.93,18.93,0,0,0,.49-3.84q0-2.93-1.2-4c-.81-.74-2.27-1.11-4.39-1.11a11.84,11.84,0,0,0-3.36.52c-1.14.34-2.13.66-3,1l1.13-4.61c2.77-1.13,5.42-2.09,8-2.9a23.82,23.82,0,0,1,7.18-1.2q6,0,9,2.38a11.45,11.45,0,0,1,4,6.69h.36A42.51,42.51,0,0,1,510,51.39a26.32,26.32,0,0,1,11.4-2.54q5.68,0,8.88,3.13a10.18,10.18,0,0,1,3.21,7.58c0,.79-.06,1.89-.18,3.31a25.45,25.45,0,0,1-.85,4.54l-3.9,14.4a40.89,40.89,0,0,0-.92,4.09,22.2,22.2,0,0,0-.41,3.49c0,2,.44,3.33,1.31,4s2.4,1.07,4.59,1.07a13.58,13.58,0,0,0,3.48-.53A19.79,19.79,0,0,0,539.4,93Z" transform="translate(-0.37)"/><path class="cls-4" d="M178.74,132.87a30.12,30.12,0,0,1,10.52,10.91,31.92,31.92,0,0,1,3.8,15.92,49.58,49.58,0,0,1-4.53,21.21,46.77,46.77,0,0,1-12.81,16.56A58.28,58.28,0,0,1,156.62,208a74.86,74.86,0,0,1-24,3.66H87.9l1-4.41c1,0,2.51-.17,4.5-.4a23.21,23.21,0,0,0,4.44-.81,7.25,7.25,0,0,0,3.6-2.42,9.61,9.61,0,0,0,1.72-3.75l13.86-59.95c.2-.85.34-1.55.43-2.12a9.75,9.75,0,0,0,.12-1.27,4.36,4.36,0,0,0-2.57-4,26.18,26.18,0,0,0-8.37-2.27l1-4.41h43.93a63.52,63.52,0,0,1,13.93,1.6A42.48,42.48,0,0,1,178.74,132.87Zm-17.9,57.71a57.7,57.7,0,0,0,6.35-15.92,77.18,77.18,0,0,0,2.06-18q0-11.73-5.33-18.65t-16-6.92c-1.41,0-2.81,0-4.21.1s-2.49.11-3.3.15l-14.81,64.35a19.3,19.3,0,0,0-.42,2.22,15.62,15.62,0,0,0-.18,1.84c0,2.54.93,4.29,2.81,5.26a17.51,17.51,0,0,0,7.9,1.45,25.35,25.35,0,0,0,14.61-4.35A34.82,34.82,0,0,0,160.84,190.58Z" transform="translate(-0.37)"/><path class="cls-1" d="M252.92,168.46a14.78,14.78,0,0,1-.67,4.46,10,10,0,0,1-2,3.69,10.65,10.65,0,0,1-3.12,2.59,10.31,10.31,0,0,1-4.61.84,9,9,0,0,1-6.05-1.89,5.54,5.54,0,0,1-2.2-4.26,10.09,10.09,0,0,1,.64-3.79c.42-1.06,1.1-2.66,2-4.82A22.73,22.73,0,0,0,231,168.8a38.63,38.63,0,0,0-4.75,4.74l-8.09,36.28H201.26l7.08-31.52c.2-1,.47-2.2.79-3.74a18.93,18.93,0,0,0,.49-3.84c0-2-.38-3.33-1.15-4.05s-2.25-1.08-4.44-1.08a11.39,11.39,0,0,0-3.35.52c-1.15.34-2.13.66-3,1l1.12-4.61c2.77-1.13,5.41-2.1,7.94-2.9a23.7,23.7,0,0,1,7.16-1.2q6,0,9,2.38a11.43,11.43,0,0,1,4,6.69h.36a44.65,44.65,0,0,1,8.62-7.51,14.51,14.51,0,0,1,7.6-2.13,8.87,8.87,0,0,1,6.87,2.74Q252.92,163.29,252.92,168.46Z" transform="translate(-0.37)"/><path class="cls-2" d="M289.22,203.41h-.41c-1.2,1-2.33,2-3.41,2.8a25.91,25.91,0,0,1-4.08,2.55,28.32,28.32,0,0,1-4.53,1.86,17.84,17.84,0,0,1-5.26.73q-8.92,0-13.43-5.24t-4.52-14.36a34.34,34.34,0,0,1,2.52-13.16,36.5,36.5,0,0,1,6.71-10.8,32.15,32.15,0,0,1,9.95-7.3,27.83,27.83,0,0,1,12-2.69,27.21,27.21,0,0,1,8.08,1.08,16.23,16.23,0,0,1,5.66,2.92l15.72-3.23.72.82-7.55,31.52c-.27,1.06-.56,2.38-.87,4a20.47,20.47,0,0,0-.46,3.61c0,1.95.44,3.29,1.33,4s2.43,1.11,4.61,1.11a13.1,13.1,0,0,0,3.46-.57,23.53,23.53,0,0,0,2.85-.92l-1.13,4.61q-5.07,2-8.12,3a21.59,21.59,0,0,1-7,1.05,15.14,15.14,0,0,1-8.42-2.07A10.94,10.94,0,0,1,289.22,203.41Zm6.1-32.5a13.42,13.42,0,0,0-.31-2.66,6.55,6.55,0,0,0-1.08-2.61,5.85,5.85,0,0,0-2.41-2,8.74,8.74,0,0,0-3.69-.69,9.39,9.39,0,0,0-6.23,2.43,22.64,22.64,0,0,0-5.05,6.47,37.1,37.1,0,0,0-3.39,9.29A47.71,47.71,0,0,0,271.93,192a27.22,27.22,0,0,0,.38,4.66,11.06,11.06,0,0,0,1.26,3.63,6.53,6.53,0,0,0,2.49,2.46,8,8,0,0,0,3.93.87,8.54,8.54,0,0,0,4.64-1.41,20.69,20.69,0,0,0,4.14-3.46Z" transform="translate(-0.37)"/><path class="cls-3" d="M382.75,177.43a35.67,35.67,0,0,1-2.44,13.09,34,34,0,0,1-6.63,10.79,31.86,31.86,0,0,1-9.79,7.28,27.87,27.87,0,0,1-12,2.56,27,27,0,0,1-7.91-1,16,16,0,0,1-5.2-2.69l-3.11,13.67c-.11.4-.21.89-.31,1.46a7.11,7.11,0,0,0-.16,1.21,4.47,4.47,0,0,0,.52,2.15,3.15,3.15,0,0,0,1.53,1.44,17.75,17.75,0,0,0,3.64,1,31.43,31.43,0,0,0,4.15.59l-.82,3.54h-37L308,229c.89-.06,2-.19,3.33-.38a22.94,22.94,0,0,0,3-.59,5.34,5.34,0,0,0,2.67-1.77,7.84,7.84,0,0,0,1.33-3.26l10.18-44.72c.21-1,.47-2.25.8-3.79a19.46,19.46,0,0,0,.48-3.8,5.58,5.58,0,0,0-1.13-3.92c-.75-.81-2.24-1.21-4.47-1.21a12,12,0,0,0-3.34.52c-1.2.34-2.19.66-3,1l1.13-4.61c2.78-1.13,5.43-2.1,8-2.9a24,24,0,0,1,7.2-1.2,20.64,20.64,0,0,1,5,.54,11,11,0,0,1,3.81,1.71,8.67,8.67,0,0,1,2.28,2.36,18.4,18.4,0,0,1,1.52,2.82h.41a36.38,36.38,0,0,1,9.15-6.05,21.22,21.22,0,0,1,8.54-1.95q8.88,0,13.36,5.26T382.75,177.43ZM360,197.62a42.34,42.34,0,0,0,3.32-9.38,49.5,49.5,0,0,0,1.13-11,27.84,27.84,0,0,0-.36-4.64,10.4,10.4,0,0,0-1.28-3.67,6.51,6.51,0,0,0-2.48-2.46,7.94,7.94,0,0,0-3.91-.87,9.7,9.7,0,0,0-5.31,1.69,17.14,17.14,0,0,0-3.84,3.18l-6.35,28.13a8.58,8.58,0,0,0,2,5.87,7.41,7.41,0,0,0,5.89,2.33,9.44,9.44,0,0,0,6.11-2.46A20.25,20.25,0,0,0,360,197.62Z" transform="translate(-0.37)"/><path class="cls-4" d="M416.06,211.51a31.89,31.89,0,0,1-10.79-1.67,20.59,20.59,0,0,1-7.66-4.64,19.26,19.26,0,0,1-4.46-6.91,24.59,24.59,0,0,1-1.49-8.72,31.41,31.41,0,0,1,2.26-11.73,30.8,30.8,0,0,1,6.71-10.25,31.57,31.57,0,0,1,10.66-7.07,36.38,36.38,0,0,1,14.25-2.72q9.16,0,14,2.92a9.61,9.61,0,0,1,4.79,8.77,12.93,12.93,0,0,1-4.15,9.61,25.62,25.62,0,0,1-11.27,6,89.7,89.7,0,0,1-9.61,2.4q-4,.72-9.71,1.34a38.94,38.94,0,0,0,.61,5.07,17.51,17.51,0,0,0,1.54,4.82,9.35,9.35,0,0,0,3.48,3.66,11,11,0,0,0,5.74,1.36,21.08,21.08,0,0,0,10.28-2.33,26.54,26.54,0,0,0,8.07-7.41l3.74,3.13a34.28,34.28,0,0,1-11.81,10.48A31.27,31.27,0,0,1,416.06,211.51Zm11.58-40.59a11.8,11.8,0,0,0-1.59-6.68,5,5,0,0,0-4.41-2.34q-3.94,0-7.45,6.43T409.7,184.6q3-.34,6-.92a22.1,22.1,0,0,0,4.71-1.33A12.07,12.07,0,0,0,426,178,13.09,13.09,0,0,0,427.64,170.92Z" transform="translate(-0.37)"/><path class="cls-1" d="M506.22,168.46a15.1,15.1,0,0,1-.66,4.46,10.11,10.11,0,0,1-2,3.69,10.55,10.55,0,0,1-3.13,2.59,10.28,10.28,0,0,1-4.61.84,9,9,0,0,1-6.05-1.89,5.54,5.54,0,0,1-2.2-4.26,10.09,10.09,0,0,1,.64-3.79c.43-1.06,1.1-2.66,2-4.82a22.73,22.73,0,0,0-5.91,3.52,40.08,40.08,0,0,0-4.75,4.74l-8.09,36.28H454.57l7.07-31.52c.21-1,.47-2.2.8-3.74a19.55,19.55,0,0,0,.48-3.84c0-2-.38-3.33-1.15-4.05s-2.25-1.08-4.43-1.08a11.4,11.4,0,0,0-3.36.52c-1.15.34-2.13.66-3,1l1.13-4.61c2.76-1.13,5.41-2.1,7.93-2.9a23.81,23.81,0,0,1,7.17-1.2c4,0,7,.79,9,2.38a11.44,11.44,0,0,1,4,6.69h.36a44.35,44.35,0,0,1,8.62-7.51,14.47,14.47,0,0,1,7.59-2.13,8.9,8.9,0,0,1,6.88,2.74C505.39,162.37,506.22,165,506.22,168.46Z" transform="translate(-0.37)"/><path d="M223.87,122.51c2.45,0,4.58.27,6.53,1.72a8.66,8.66,0,0,1,3.37,7.08,8.36,8.36,0,0,1-3.53,7.08,10,10,0,0,1-6.42,1.69h-3.64V122.51Zm-1,15H224a7.55,7.55,0,0,0,4.66-1.24,6.18,6.18,0,0,0,2.4-5,6.27,6.27,0,0,0-2.37-5.06A7.92,7.92,0,0,0,224,125h-1.16Z" transform="translate(-0.37)"/><path d="M247.89,125h-7v4.45h6.79V132h-6.79v5.53h7v2.53H238.2V122.51h9.69Z" transform="translate(-0.37)"/><path d="M253.32,122.51l4.9,12.25,4.9-12.25H266l-7.8,18.7-7.8-18.7Z" transform="translate(-0.37)"/><path d="M279,125h-7v4.45h6.8V132H272v5.53h7v2.53h-9.7V122.51H279Z" transform="translate(-0.37)"/><path d="M286.2,122.51v15h5.16v2.53h-7.85V122.51Z" transform="translate(-0.37)"/><path d="M311.59,131.31a9.14,9.14,0,1,1-9.14-9.11A8.92,8.92,0,0,1,311.59,131.31Zm-2.69,0a6.46,6.46,0,1,0-6.45,6.64A6.29,6.29,0,0,0,308.9,131.31Z" transform="translate(-0.37)"/><path d="M319.89,122.51a6.87,6.87,0,0,1,3.84.95,5.08,5.08,0,0,1,2.19,4.27,4.94,4.94,0,0,1-1.71,3.84,6.34,6.34,0,0,1-4.3,1.37H318.7v7.14H316V122.51Zm-1.19,8h1.21c2.32,0,3.43-1.14,3.43-2.77,0-1-.4-2.71-3.45-2.71H318.7Z" transform="translate(-0.37)"/><path d="M339.4,125h-7v4.45h6.79V132H332.4v5.53h7v2.53h-9.69V122.51h9.69Z" transform="translate(-0.37)"/><path d="M347.07,122.51a7.93,7.93,0,0,1,4.64,1,4.91,4.91,0,0,1,2.08,4.14,4.82,4.82,0,0,1-3.9,4.89l5.48,7.51h-3.24l-5-7.19h-.48v7.19h-2.68V122.51Zm-.45,8.06h.85c.73,0,3.74-.08,3.74-2.87,0-2.47-2.35-2.71-3.67-2.71h-.92Z" transform="translate(-0.37)"/><path d="M380,133.63,377.91,136l3.24,4.06h-3.26l-1.74-2.16a10.5,10.5,0,0,1-1.47,1.29,6.21,6.21,0,0,1-3.85,1.21,4.89,4.89,0,0,1-5.27-5,5.27,5.27,0,0,1,2.53-4.53c.47-.34,1.24-.87,1.4-1a5.44,5.44,0,0,1-1.74-3.64,4.2,4.2,0,0,1,8.37-.26,3.67,3.67,0,0,1-.76,2.29,10.73,10.73,0,0,1-2.19,2l3.11,3.79,2-2.26Zm-8.92-1.82a8.41,8.41,0,0,0-1.93,1.45,3.28,3.28,0,0,0-.94,2.24,2.64,2.64,0,0,0,2.73,2.66,3.47,3.47,0,0,0,2-.69,14.73,14.73,0,0,0,1.63-1.45Zm1.52-4.08a2.23,2.23,0,0,0,1.06-1.74,1.57,1.57,0,0,0-1.74-1.58,1.52,1.52,0,0,0-1.69,1.55,2.51,2.51,0,0,0,.61,1.53l.79,1Z" transform="translate(-0.37)"/><path d="M395.2,122.51c2.44,0,4.58.27,6.53,1.72a8.69,8.69,0,0,1,3.37,7.08,8.36,8.36,0,0,1-3.53,7.08,10.09,10.09,0,0,1-6.43,1.69h-3.63V122.51Zm-1,15h1.16a7.54,7.54,0,0,0,4.66-1.24,6.16,6.16,0,0,0,2.4-5,6.24,6.24,0,0,0-2.37-5.06,7.92,7.92,0,0,0-4.69-1.21h-1.16Z" transform="translate(-0.37)"/><path d="M419.22,125h-7v4.45H419V132h-6.8v5.53h7v2.53h-9.69V122.51h9.69Z" transform="translate(-0.37)"/><path d="M431.34,126.41a2.86,2.86,0,0,0-.79-1.1,2.82,2.82,0,0,0-1.9-.64,2.19,2.19,0,0,0-2.48,2.11c0,.53.19,1.45,1.9,2.13l1.76.71c3.24,1.32,4.14,3.16,4.14,5.17a5.41,5.41,0,0,1-5.66,5.63,5.15,5.15,0,0,1-4.14-1.76,5.65,5.65,0,0,1-1.47-3.43l2.66-.58a3.79,3.79,0,0,0,.73,2.24,2.76,2.76,0,0,0,2.3,1.06,2.82,2.82,0,0,0,2.89-2.95c0-1.79-1.37-2.53-2.52-3l-1.69-.71c-1.45-.6-3.58-1.81-3.58-4.45,0-2.37,1.84-4.63,5.13-4.63a5.19,5.19,0,0,1,3.53,1.18,5.9,5.9,0,0,1,1.35,1.77Z" transform="translate(-0.37)"/><path d="M441.08,122.51v17.57H438.4V122.51Z" transform="translate(-0.37)"/><path d="M455.44,130.94h7.24v.13a9.59,9.59,0,0,1-2.61,7.11,8.17,8.17,0,0,1-6,2.24,7.66,7.66,0,0,1-6-2.39,9.2,9.2,0,0,1,6.55-15.83,9.57,9.57,0,0,1,4.59,1.1,8.08,8.08,0,0,1,2.84,2.64l-2.13,1.5a7.14,7.14,0,0,0-2.16-2,5.94,5.94,0,0,0-3.11-.77,6.35,6.35,0,0,0-4.64,1.82,7.16,7.16,0,0,0-1.87,4.92,7.06,7.06,0,0,0,1.82,4.77,5.71,5.71,0,0,0,4.4,1.77,5.25,5.25,0,0,0,3.92-1.56,4.68,4.68,0,0,0,1.48-3h-4.37Z" transform="translate(-0.37)"/><path d="M467.11,140.08V121.33l12.74,13.35V122.51h2.69v18.65l-12.75-13.35v12.27Z" transform="translate(-0.37)"/><path d="M497.5,125h-7v4.45h6.79V132H490.5v5.53h7v2.53h-9.69V122.51h9.69Z" transform="translate(-0.37)"/><path d="M505.17,122.51a7.93,7.93,0,0,1,4.64,1,4.91,4.91,0,0,1,2.08,4.14,4.82,4.82,0,0,1-3.9,4.89l5.48,7.51h-3.24l-5-7.19h-.48v7.19H502V122.51Zm-.45,8.06h.85c.73,0,3.74-.08,3.74-2.87,0-2.47-2.35-2.71-3.67-2.71h-.92Z" transform="translate(-0.37)"/><line class="cls-5" x1="520.09" y1="132.25" x2="531.98" y2="132.25"/><line class="cls-5" x1="198.09" y1="132.25" x2="209.97" y2="132.25"/><path class="cls-6" d="M559.08,5.94a.16.16,0,0,0-.26.14l.31.16Z" transform="translate(-0.37)"/><path class="cls-6" d="M558.31,7.16c.13.23.38.53.7.43-.29-.27-.15-.31-.5-.59,0-.19.15-.32.27-.27-.08-.08.1-.29-.09-.41a.66.66,0,0,0-.17.88C558.44,7.26,558.37,7.18,558.31,7.16Z" transform="translate(-0.37)"/><path class="cls-6" d="M548.38,21.52l.12,0A.17.17,0,0,0,548.38,21.52Z" transform="translate(-0.37)"/><path class="cls-6" d="M545.18,24.9c-.08,0-.12,0-.13.05S545.2,24.93,545.18,24.9Z" transform="translate(-0.37)"/><path class="cls-6" d="M547,25.59l-.1,0S546.92,25.61,547,25.59Z" transform="translate(-0.37)"/><path class="cls-6" d="M548.38,21.52l-.31,0C548.1,21.67,548.24,21.56,548.38,21.52Z" transform="translate(-0.37)"/><path class="cls-6" d="M558.68,9.85a.41.41,0,0,0,0-.19v.16Z" transform="translate(-0.37)"/><path class="cls-6" d="M552.2,18.51l.06-.07s0-.09,0-.15Z" transform="translate(-0.37)"/><path class="cls-6" d="M554.55,15.66c-.07.06.15.24.23.34a.34.34,0,0,1,0-.26A.78.78,0,0,0,554.55,15.66Z" transform="translate(-0.37)"/><path class="cls-6" d="M557.35,10.42v0Z" transform="translate(-0.37)"/><path class="cls-6" d="M550.09,20.11a.21.21,0,0,0-.08-.06A.16.16,0,0,0,550.09,20.11Z" transform="translate(-0.37)"/><path class="cls-6" d="M558.89,4.71h.05S558.88,4.68,558.89,4.71Z" transform="translate(-0.37)"/><path class="cls-6" d="M559.7,0l0,.06h.16Z" transform="translate(-0.37)"/><path class="cls-6" d="M550,27h0C549.85,27,549.9,27,550,27Z" transform="translate(-0.37)"/><path class="cls-6" d="M563.65,38.14c-.34.29-.16-.64-.57-.19C563.2,37.93,563.38,38.53,563.65,38.14Z" transform="translate(-0.37)"/><path class="cls-6" d="M558.61,9.94l0,.16A.36.36,0,0,0,558.61,9.94Z" transform="translate(-0.37)"/><path class="cls-6" d="M563.08,38h0l0,.05Z" transform="translate(-0.37)"/><path class="cls-6" d="M555.74,31.81a.29.29,0,0,0,0-.13A.2.2,0,0,0,555.74,31.81Z" transform="translate(-0.37)"/><path class="cls-6" d="M551.92,27.51l.1.11A.36.36,0,0,0,551.92,27.51Z" transform="translate(-0.37)"/><path class="cls-6" d="M557.65,34.2c0,.08,0,.13.07.21l0,0C557.68,34.34,557.65,34.3,557.65,34.2Z" transform="translate(-0.37)"/><path class="cls-6" d="M558.91,37.15s0,0,0-.07L558.9,37Z" transform="translate(-0.37)"/><path class="cls-6" d="M562.33,14.53a.7.7,0,0,1,.15-.25C562.32,14.42,562,14,562.33,14.53Z" transform="translate(-0.37)"/><path class="cls-6" d="M558.52,9.81c.07,0,.09.07.09.13l0-.12A.11.11,0,0,0,558.52,9.81Z" transform="translate(-0.37)"/><path class="cls-6" d="M559.68,33.33l.21.51A2.63,2.63,0,0,0,559.68,33.33Z" transform="translate(-0.37)"/><path class="cls-6" d="M578.5,23.54l.12,0A.16.16,0,0,0,578.5,23.54Z" transform="translate(-0.37)"/><path class="cls-6" d="M560.59,35.33a1,1,0,0,0-.07.37l.09,0Z" transform="translate(-0.37)"/><path class="cls-6" d="M562.48,14.27h0Z" transform="translate(-0.37)"/><path class="cls-6" d="M560.41,11.24c.17.5.42.1.66.13.32.54-.15.37-.25.63.25.33.67.47.77.74-.05,0,0,.11-.14.08.45.25.52,1.11,1.08,1.36a.19.19,0,0,1,0,.09,1.06,1.06,0,0,1,.42-.29c.11.2.4.26.23.45-.06-.12-.15-.09-.25-.11l.2.16c-.2.36-.26-.23-.48-.11.32.37.83.71.93,1.06-.25.24-.53-.67-.54-.1-.06-.19-.11-.37-.16-.56-.27.64-.13-.32-.45.3.28.72.58.65.87,1.35.25,0,.21-.2.46-.16.87.68-.25,1.18.58,1.56.31,0,.7-.17.86.41l-.42.09c.42.6.68,0,1,.72-.21,0-.48-.35-.44-.24.1.57.4.13.65.41l-.2.28a5.72,5.72,0,0,0,1,.76c.35.25.71.48,1.07.73-.11.05-.29,0-.2.24a16,16,0,0,1,1.36,1.05c.42.4.88.77,1.28,1.14l.5,0c.08.05.09.2,0,.2.32.29.11-.15.34-.17s.2.29,0,.3a10.84,10.84,0,0,1,1.4.32,3,3,0,0,1,1.29.61l-.16,0c.53.3.82-.38,1.26,0l-.12,0c1.2.49,2.63.45,3.55,1,.22-.37,1.25.3,1.36-.3a6.1,6.1,0,0,0,1.13.54l.14-2.47a3.24,3.24,0,0,0-.44-.12c-.29,0-.44.34-.78.4v-.3l-.46.32-.26-.36-.32.09c.13,0,.28.13.26.22-.48.15-1.22-.13-1.25-.29-.39.13-.78.26-1.15.41,0-.13.2-.2.34-.3-.58.4-.16-.31-.7.07.09.05,0,.18,0,.25a2.27,2.27,0,0,0-1.43.18l0-.22a13.87,13.87,0,0,0-2.72,1c.37,0,.42.33.17.47l-.23-.26c-.1.26.32,0,.06.38-.35.1-.37-.25-.21-.43l-.37.28c-.07-.08,0-.17,0-.29-.08.26-.86,0-.95.47l-.07-.07a15.38,15.38,0,0,0-1.91,1.29c.15.24-.15.38-.21.71a6.13,6.13,0,0,0-1.7,1.05c-.26.46.06.28,0,.55-.21-.15-.7.37-.57,0a7,7,0,0,0-1.21,1.85c.16,0,.27-.11.3,0s-.35.29-.43.2V30.9a5,5,0,0,1-1.21,1.58c-.46.51-.92,1-.86,1.58V34l-.14,1c-.22.4-.07-.33-.35-.07,0,1.16-.65,1.59-.59,2.53-.94.47-.52,2.36-1.1,3.18l.18,0c.14.26-.14.27-.21.44.14,0,.2-.23.27-.07-.08,1.71-.46,3.47-.69,5.24l3.06,0c0-.36,0-.64,0-.95,0-.77-1-.35-.63-1.33l.36.23c-.56-1.45-.44-3.08-1.11-4.44.09.06.19,0,.22.18.17-.36-.28-1.12-.47-1.08,0-.22.16-.09.22-.26.05-.34-.52-.67-.34-.9,0,0,.1.06.14.11-.16-.16-.28-.92-.47-.65,0-.57-.47-1-.48-1.43-.38-.16-.23-1-.66-.86.44-.14-.07-1.05-.42-1.27.17,0,0-.34.22-.3-.19-.37-.45-.65-.62-.48.12-.94-1.13-1.06-.77-1.8-.89-.87-1.69-1.67-2.52-2.37.36-.28.84.86,1.16.53a17,17,0,0,1-2.19-1.61c-.16-.23.24,0,.36,0a11.4,11.4,0,0,0-2.46-1.63s.14,0,.23,0c-.16-.09-.32-.29-.41-.1l.18.05c.08.4-.93.13-1,.28.56-.37-.71-.55.07-1-.12,0-.3,0-.34.13-.14-.12-.15-.22.08-.27-.63-.22-.52.11-1-.14,0-.09.16-.08.27-.16a1.46,1.46,0,0,1-1.13-.15s0-.14.17-.09c-.83-.24-1.52,0-2.36-.36.36-.36-.27-.21-.24-.59h-.52l.17.22c-.43-.09-.85.13-1.2-.05l.34-.1-.81,0,.43.21c-.45.13,0,.47-.56.29.12,0-.42,0-.62-.27h0a.91.91,0,0,1-.75.1c-.07-.12.09-.41,0-.49-.23.28-1,.07-1.28.41a.33.33,0,0,0,.06-.32l-.17.26c-.2-.08-.23-.12-.2-.27-.6,0,.2.47-.51.27.06,0,0-.06.14-.1l-.24,0,.06,1.07c.67,0,1.2-.32,1.79-.33.26.33-.55.2-.27.47.94-.25,1.82-.86,2.7-1.07l-.17,0c-.05-.54.72,0,1.08-.36-.09.08,0,.33,0,.26a6,6,0,0,0,1.93-1.16l-.05.18a9.28,9.28,0,0,0,1.28-.52c0-.17.24-.28,0-.38a2.21,2.21,0,0,0,1.57-.82c.38-.45.7-.91,1.34-1-.1.09-.17.29-.09.23a5.35,5.35,0,0,0,.62-.72c-.21-.11-.18,0-.44,0a.93.93,0,0,1,.25-.6c-.17.4.26.26.48.22-.07,0-.08-.13-.14-.16.63-.06-.28-.39.37-.66l.07.11a2.67,2.67,0,0,1,.35-.67c.27.09-.06.29.08.44.24-.29.06-.9.47-1,0,.17-.17.36-.21.53a.87.87,0,0,0,.64-.38l0,0,.5-.43-.17.08a.77.77,0,0,1,.12-.8,1.22,1.22,0,0,0,.24-.84c.08.75.17.21.41.41.15-.1.35-.27.39-.17-.06-.38.43-.35.32-.89.1,0,.17-.28.35-.11.13-.39-.19,0-.29-.08,0-.67.92-1.16.82-2.13.12-.75-.22-1-.2-1.69.21-.18.3.28.3.28a1.37,1.37,0,0,0,.25-1c.07.09.15,0,.29,0,0-.28-.3-.26-.07-.59a1.24,1.24,0,0,1,.31.36,6.6,6.6,0,0,0-.15-1.06c.18-.06.23.25.32.39,0-.4,0-1-.28-1.18L558.4,8c0-.14.24,0,.27.08a.29.29,0,0,1-.25.46l0-.26c-.3.08-.31.32-.25.61a2.41,2.41,0,0,1,0,.84l-.36-.28.21.56c-.13.08-.37.09-.37-.16-.29.29.06.34-.23.56,0,0-.06,0-.07,0l0,.36c-.07-.09-.3,0-.19-.21-.38.51.08,1-.32,1.14v-.05c-.17.82.26.17.36.88l-.85.12.25.19c0,.08-.13.23-.23.15.08.38.14,0,.26.25a1.28,1.28,0,0,0-.37.65c-.11.22-.23.39-.47.32.13.23.35-.27.28.19-.53-.13-.17.49-.57.71-.18-.24.12-.47-.27-.27.28.43-.44.59-.53.89.3.21-.28.63-.5,1.13-.08-.1-.74.69-1.2.92l0-.06c.2.32-.2.64-.41,1a.42.42,0,0,1-.08-.49l-.24.24a.55.55,0,0,1-.14.46l-.12-.26c-.33.29-.5.82-1.07,1.05.12.23.81.26.41.81-.1-.1-.26-.27-.17-.42,0,.05-.08.21-.2.23L551,20c-.27.09,0,.25-.18.36-.11-.16-.22,0-.28-.17s.21,0,.22-.15a.94.94,0,0,1-.7.1.22.22,0,0,1,0,.34c-.38.26-.26-.11-.54-.05,0,.17-.33.21-.19.47-.11.07-.2,0-.29-.08-.14.23-1,.55-.57.7h.06l0,0h0c-.56.66-1.55.56-2.21,1l0-.1c-.4.26-.95.4-1.21.71-.13,0-.36-.08-.34-.21-.32.17-.33.29-.87.26.3-.26-.15-.11.32-.22-.46.05-.59-.09-1,.28.11-.29-.39-.24-.59-.13l.35.12a2.29,2.29,0,0,1-.67.11l.07-.35a1.4,1.4,0,0,0-1,.17l.11,2c.46-.17.89-.38,1.3,0,.25-.24-.5-.16-.28-.43.43,0,.87.51,1,.53.57.22.57-.45,1.18-.28-.07-.12-.11-.46.37-.51s.46.57.18.62c-.1,0-.15-.05-.14-.09s-.32.05-.17.2L545,25c.19.15.77.23.6.4.34-.07.17-.17-.06-.27.51.25.85.12,1.36.38-.07-.09-.12-.24,0-.22.76.33.4-.14,1,0,.25.27-.23.37.34.41.29.22,0,.32-.18.37.54,0,.84.42,1.07.58h-.27a.9.9,0,0,1,.39.11l0-.28c.12.1.24.15.2.24.21-.08,0-.41.42-.48.14.2.65.13.57.46-.55-.38-.08.31-.59.13A.59.59,0,0,1,550,27c0,.05,0,.05-.09.05.41.54.41-.18,1,.13a.23.23,0,0,0,.07.38c-.22-.13,0-.32.32-.32.28.35.43.16.61.3l-.17-.19c.16-.1.33,0,.61.15-.06.13-.28-.07-.23,0,.47-.09.41.69.89.8.09.22-.2.27-.11.44.54.14.24.54.75.75.06-.28,0-.26.43-.17l-.75-.47L554,29c-.19-.19-.51-.27-.6-.41.33,0,.27.06.3-.17,0,.51.69.34.83.82l-.43.4c.23.63,1,.6,1.38,1.34l-.08-.26c.25-.06.35.36.58.53-.17.1-.13.27-.17.44.11-.1.33.49.7.33,0,.15,0,.31,0,.46.26.61.9.34,1.15,1-.28-.07-.27.26-.61,0,.11.19.17.38.29.32,0,.16.52.39.44.66.11,0,.31,0,.4.21,0,0-.08,0-.08,0s.28.29.39,0c-.26.86.79,1.73.5,2.47a12.28,12.28,0,0,1,.6,1.36c-.07,0-.1,0-.1-.06,0,.62.65.19.64.91-.22.42-.26-.31-.32-.06-.61.26.3.77,0,1.3l-.07-.09c-.13.38.44.77.5,1.34a.12.12,0,0,0-.1,0,3.39,3.39,0,0,1,.8,1.58c-.27-.14-.17-.23-.41-.09.07.24.41-.13.55.35-.12.18-.2.55-.47.63l-.07-.46c-.32.28.09.59.05.84h-.16c.12.69.52.67.53,1.43l.12-.08c.13.13.15.21.13.27h.62c0-.14.26-.2.07-.49l.4-.12a8.53,8.53,0,0,1-.42-1.48,4.68,4.68,0,0,1,.58,1.24c0-.27,0-.92-.19-1.08,0,.12.13.26.06.37a1.72,1.72,0,0,1-.38-1.35c.76.15.3-1.42,1-1.72-.17-1,.41-1.84.6-2.91-.68.23.07-.31-.54-.4,0-.26.07-.35.11-.36l.56-.66c.22-.12.06.28.2.29.19-.52.31-.14.58-.44-.23,0-.24-.27,0-.54l-.42.32c0-.83.68-.46.68-1.28l.08.29c.06-.4.56-1.31.33-1.87.1,0,.29,0,.25.14.46-.8.63-2.08,1.32-2.5l.08.15c.07-.16-.05-.42.21-.49,0,.05.07.15.13.09s.11-.52.33-.64v.26a2.09,2.09,0,0,0,.68-.92,2.77,2.77,0,0,1,.52-1c.28.33.92,0,1.26-.15l0,.06c.87-.56,1.29-1.28,2.13-1.87.74.15,2-.63,3-.61-.17,0-.07-.34.1-.42s.57-.45.62,0h-.09c.26.35.7.15,1.07.11l0-.53a2.51,2.51,0,0,0,1.75,0c.58-.11,1.12-.21,1.38.14.23-.13.53-.12.75-.23l0,.28.08,0,.13-2.56a6.78,6.78,0,0,0-1.68-.09l.18-.2c-.45,0-.64.75-1.08.73l-.08-.44c-.81-.06-1.51-.62-2.37-.41a.21.21,0,0,1,.21-.15c-.36-.11-1.28-.68-1.34-.08.1-.34-.75-.31-1.22-.32l.16-.24c-.47.2-.53.3-1,.15-.1-.08,0-.24.11-.11-.3-.31-.4.1-.78-.26l.25-.07c-.37-.21-.39-.1-.69,0s-.65-.48-.57-.72a.46.46,0,0,1-.6-.05c0-.1.13-.1.18-.1-.45-.57-1-.34-1.25-.87a.22.22,0,0,0,0-.18c.41.37.79.62.74.62.14-.21-.18-.5.31-.59-.4,0-1.13-.09-1.38-.47a.41.41,0,0,1,0-.11h0a.41.41,0,0,0-.23-.15,2.16,2.16,0,0,0-.21-.29c.11-.19-.28-.44-.43-.6-.18.21-.36,0-.33.32,0,0,0,0,.17.11l.08,0h0l.4.38c-.22,0-.44-.07-.5-.35l-.55.09c0-.48-.17-1.09,0-1.3-.58-.39-1.07-1.18-1.77-1.22-.16-.13,0-.28,0-.38.11.06.17.18.27.18-.33-.25-.7-.92-1-.81-.12-.52.43.06,0-.5l.14,0c-.17-1.41-1.91-1.48-1.85-3.19,0,.12,0,.17,0,.22-.38-1.69-1.57-3.23-1.5-5,0-.49-.25-.48-.5-.73l.27-.17-.45-.41c-.4-.66.47-1.36-.15-2.17l-.19.15c0-.33-.27-1,0-1,0,0-.23-.08-.14-.22l.16,0-.37-.76c0-.63.63,0,.58-.87-.1-.32-.53-.9-.62-.77s-.08.34-.24.36l-.1-.3c-.47,0-1-.28-1.24.56l.33.53-.2.2L558.55.9c-.19.29,0,.44.16.61a.41.41,0,0,0-.22.26l.5.48c-.17.09-.38-.2-.44.18.24.22.37-.29.56.1-.17.29-.35.24-.13.52-.11.06-.2,0-.27-.11.18.25.17.71.44.81-.22.31.23.9-.21,1a1.76,1.76,0,0,1,.5.65c-.61-.34.16.93-.41.93.53.23.49,1.16.9,1.68,0,0-.13-.07-.12-.13a2.35,2.35,0,0,1-.08.71c.38-.06.62.42.93.62-.23.51-.51-.1-.82.13.29-.12.53.59.74.38-.12.37,0,.29-.28.55.48-.1.17.26.55.41-.06.51-.39.27-.07.7C560.73,11.61,560.41,11.24,560.41,11.24Zm7.41,9.67h0l-.2-.16Zm.79.65-.34-.28c0-.1.13-.15.2-.08C568.39,21.21,568.53,21.41,568.61,21.56Zm-.28-2.82c.13.08.13.15.11.21l-.21-.16h0Z" transform="translate(-0.37)"/><path class="cls-6" d="M567.89,18.82l-.06,0a.43.43,0,0,0,0,.11l.1,0Z" transform="translate(-0.37)"/><path class="cls-6" d="M548.52,21.49h0A.05.05,0,0,1,548.52,21.49Z" transform="translate(-0.37)"/><polygon class="cls-6" points="579.29 23.38 579.3 23.45 579.39 23.38 579.29 23.38"/><path class="cls-6" d="M553.45,19.05a.12.12,0,0,0,.1,0A.16.16,0,0,0,553.45,19.05Z" transform="translate(-0.37)"/><path class="cls-6" d="M555.08,17.26l.29-.21A1.69,1.69,0,0,0,555.08,17.26Z" transform="translate(-0.37)"/><path class="cls-6" d="M556.24,15.79l-.08-.09h0Z" transform="translate(-0.37)"/><path class="cls-6" d="M552.85,25.87l.07,0C553.1,26,553,25.91,552.85,25.87Z" transform="translate(-0.37)"/><path class="cls-6" d="M544.28,23.74a1.15,1.15,0,0,1,.29-.11C544.42,23.59,544.3,23.58,544.28,23.74Z" transform="translate(-0.37)"/><polygon class="cls-6" points="559.3 33.27 559.29 33.27 559.32 33.33 559.3 33.27"/><path class="cls-6" d="M545,23.66a.59.59,0,0,0-.41,0A1.12,1.12,0,0,0,545,23.66Z" transform="translate(-0.37)"/><path class="cls-6" d="M559,8.22l0-.09,0,0Z" transform="translate(-0.37)"/><path class="cls-6" d="M559,8.11l0-.1S559,8.09,559,8.11Z" transform="translate(-0.37)"/><path class="cls-6" d="M558.92,7.79,559,8C559,7.94,559,7.85,558.92,7.79Z" transform="translate(-0.37)"/><path class="cls-6" d="M558.38,10.6l.09.06Z" transform="translate(-0.37)"/><path class="cls-6" d="M558.22,11.34c.07-.17.32-.38.32-.64l-.07,0C558.58,10.81,558.1,11.13,558.22,11.34Z" transform="translate(-0.37)"/><path class="cls-6" d="M556,13.74l.3-.52c-.14,0-.32.12-.25-.14C555.46,13.63,556.31,13,556,13.74Z" transform="translate(-0.37)"/><path class="cls-6" d="M555,15.25c.11-.3-.13-.08-.18-.12C554.76,15.35,554.76,15.41,555,15.25Z" transform="translate(-0.37)"/><path class="cls-6" d="M544.6,22.83l0-.25C544.34,22.68,544.59,22.67,544.6,22.83Z" transform="translate(-0.37)"/><polygon class="cls-6" points="541.98 24.68 542.25 24.8 542.34 24.55 541.98 24.68"/><polygon class="cls-6" points="541.74 25.25 541.64 25.29 542.04 25.19 541.74 25.25"/><path class="cls-6" d="M558.48,36.71l.27-.19C558.64,36.39,558.29,36.49,558.48,36.71Z" transform="translate(-0.37)"/><path class="cls-6" d="M560.77,46a.49.49,0,0,0-.17.28h1.82a.29.29,0,0,0-.07-.25,2.27,2.27,0,0,1-.06.25h-1.56A.42.42,0,0,0,560.77,46Z" transform="translate(-0.37)"/><path class="cls-6" d="M577.21,26.06l-.17.13.33-.13Z" transform="translate(-0.37)"/><path class="cls-6" d="M14,165.58c.08,0,.27,0,.25-.09l-.32-.11Z" transform="translate(-0.37)"/><path class="cls-6" d="M14.73,164.82a.81.81,0,0,0-.71-.31c.29.19.16.2.51.4,0,.12-.13.2-.25.17.08,0-.09.18.11.26.27-.13.3-.32.12-.56C14.59,164.75,14.67,164.8,14.73,164.82Z" transform="translate(-0.37)"/><path class="cls-6" d="M21.46,155.73l-.14,0Z" transform="translate(-0.37)"/><path class="cls-6" d="M24,153.78a.26.26,0,0,0,.15,0C24.09,153.78,24,153.76,24,153.78Z" transform="translate(-0.37)"/><path class="cls-6" d="M24.05,153l0,.05C24.09,153,24.12,153,24.05,153Z" transform="translate(-0.37)"/><path class="cls-6" d="M21.46,155.73l.38-.06C21.71,155.6,21.61,155.69,21.46,155.73Z" transform="translate(-0.37)"/><path class="cls-6" d="M14.21,163.05a.34.34,0,0,0,.06.12.37.37,0,0,1,0-.11Z" transform="translate(-0.37)"/><path class="cls-6" d="M18.81,157.81l0,0a.49.49,0,0,0,.06.13Z" transform="translate(-0.37)"/><path class="cls-6" d="M17.37,159.58s-.18-.2-.27-.29c.08.09.1.15.09.2Z" transform="translate(-0.37)"/><path class="cls-6" d="M15.45,162.77l0,.08Z" transform="translate(-0.37)"/><path class="cls-6" d="M20.12,156.84l.08.07A.27.27,0,0,0,20.12,156.84Z" transform="translate(-0.37)"/><path class="cls-6" d="M14.85,166.29h0S14.86,166.31,14.85,166.29Z" transform="translate(-0.37)"/><polygon class="cls-6" points="13.47 169.35 13.45 169.31 13.3 169.31 13.47 169.35"/><path class="cls-6" d="M20.28,151.76h0C20.43,151.77,20.36,151.76,20.28,151.76Z" transform="translate(-0.37)"/><path class="cls-6" d="M10.93,145c.31-.15.2.43.57.18C11.39,145.22,11.17,144.82,10.93,145Z" transform="translate(-0.37)"/><path class="cls-6" d="M14.26,163a.29.29,0,0,1,0-.1A.22.22,0,0,0,14.26,163Z" transform="translate(-0.37)"/><path class="cls-6" d="M11.5,145.22h0l0,0Z" transform="translate(-0.37)"/><path class="cls-6" d="M16.74,148.91a.41.41,0,0,0-.07.11A.26.26,0,0,0,16.74,148.91Z" transform="translate(-0.37)"/><path class="cls-6" d="M19,151.65l0-.08A.16.16,0,0,0,19,151.65Z" transform="translate(-0.37)"/><path class="cls-6" d="M15.44,147.51s0-.09,0-.13l0,0S15.46,147.44,15.44,147.51Z" transform="translate(-0.37)"/><path class="cls-6" d="M14.64,145.68l0,0,0,.06Z" transform="translate(-0.37)"/><path class="cls-6" d="M12.58,159.94a.91.91,0,0,1-.18.21C12.57,160,12.78,160.28,12.58,159.94Z" transform="translate(-0.37)"/><path class="cls-6" d="M14.36,163.08c-.06,0-.09-.05-.1-.09v.07A.14.14,0,0,0,14.36,163.08Z" transform="translate(-0.37)"/><path class="cls-6" d="M13.43,148.44l-.13-.35A1.52,1.52,0,0,0,13.43,148.44Z" transform="translate(-0.37)"/><path class="cls-6" d="M2,154.83l-.08,0A.06.06,0,0,0,2,154.83Z" transform="translate(-0.37)"/><path class="cls-6" d="M12.83,147.12a.52.52,0,0,0,.11-.26h-.09Z" transform="translate(-0.37)"/><path class="cls-6" d="M12.4,160.15Z" transform="translate(-0.37)"/><path class="cls-6" d="M14,162c-.11-.32-.39,0-.61,0-.25-.33.18-.27.3-.47-.19-.2-.57-.24-.63-.42s.05-.08.14-.07c-.38-.12-.34-.72-.82-.82a.28.28,0,0,1,.06-.08,1.38,1.38,0,0,1-.43.27c-.07-.12-.33-.13-.14-.29,0,.08.12,0,.21.05l-.16-.09c.23-.29.2.13.43,0-.24-.22-.66-.39-.7-.63.27-.22.38.41.48,0,0,.13,0,.25.06.38.34-.5.08.22.46-.29-.15-.48-.43-.39-.59-.86-.22,0-.22.18-.44.19-.66-.37.41-.94-.26-1.1-.27,0-.64.25-.68-.17l.38-.14c-.26-.41-.59.13-.72-.41.17,0,.35.2.33.12,0-.44-.31,0-.47-.22l.21-.26A12.12,12.12,0,0,0,9,155.81c.08-.05.23-.07.2-.23a7.42,7.42,0,0,1-1.7-1.52l-.38.12a.12.12,0,0,1,0-.19c-.19-.22-.1.16-.27.2a.14.14,0,0,1,0-.27c-.55,0-1.43-.08-1.8-.54l.12,0c-.34-.24-.6.44-.85.08l.07,0c-.77-.37-1.71-.24-2.29-.74-.15.39-.81-.26-.89.33-.38-.26-.35-.37-.74-.53l-.13,2.48a2.63,2.63,0,0,0,.29.11c.19,0,.3-.35.52-.42v.31l.31-.32.17.36.21-.09a.23.23,0,0,1-.18-.21.75.75,0,0,1,.84.31l.74-.36c0,.13-.13.19-.22.28.37-.37.13.31.46,0-.06-.07,0-.19,0-.25a1.14,1.14,0,0,0,.94-.09v.22a8.54,8.54,0,0,0,1.79-.67.28.28,0,0,1-.18-.47l.19.27c0-.24-.22,0-.09-.36.23-.06.3.27.21.43l.23-.23c0,.09,0,.16,0,.28,0-.23.63.09.63-.31l.06.08a12.5,12.5,0,0,0,1.25-.89c-.15-.24.06-.32,0-.6.35-.18.87-.25,1.19-.61.13-.35-.1-.25-.11-.47.19.16.5-.2.46.11a3,3,0,0,0,.74-1.27c-.13,0-.21,0-.26,0a.23.23,0,0,1,.34-.08v0c.06-.44.49-.69.86-1s.66-.64.55-1v0l0-.7c.16-.26.1.23.34.09-.18-.81.4-1,.3-1.68.92-.24.27-1.54.86-2h-.18c-.15-.18.13-.17.19-.28-.14,0-.19.15-.27,0a12,12,0,0,1,.19-1.68c.11-.56.27-1.14.4-1.71l-3.07,0c0,.24,0,.42,0,.63,0,.51.94.2.58.85l-.34-.14c.51.93.26,2,.83,2.86-.08,0-.18,0-.2-.1-.19.25.17.73.36.68,0,.15-.17.08-.24.2s.45.4.25.57c0,0-.09,0-.12-.06.15.09.16.61.39.4,0,.39.34.61.3.93.35.06.09.64.52.52-.44.16-.08.74.23.84-.16,0,0,.25-.25.25.13.24.32.42.5.26-.26.72.87.62.44,1.22.61.56,1.24,1,1.78,1.45-.35.29-.55-.56-.89-.23.61.4,1.1.44,1.56.94.09.16-.21.08-.31.1.65.29,1,.93,1.66,1,0,0-.1,0-.18,0,.11.06.21.21.31,0h-.13c0-.34.72-.29.81-.42-.46.41.42.43-.2.92a.25.25,0,0,0,.26-.16c.08.09.08.18-.09.26.22.07.3,0,.35,0a.19.19,0,0,1,.22,0c-.07.08-.13.1-.21.19.18-.14.45-.24.55-.11-.06,0-.11.1-.15.08a2.37,2.37,0,0,0,.59,0,2.09,2.09,0,0,1,.61,0l0,0c-.78.2-.11.1-.75.28l.31,0,.29-.09c.1,0,.83-.06.7,0l-.45,0,.43,0,.17-.09c.64,0,1.08-.18,1.13-.08-.16,0,.24,0-.26.08h0a4.81,4.81,0,0,1,.8,0l-1.5.16c1-.1.62,0,1.89-.12l-1.13.1,1-.08c-.2,0-.34,0-.91.09.05,0,1.66-.15,1.21-.08l-.43,0s0,0,0,0c-.29,0,.09,0-.52.1-1.27.09-.08,0-1.2.06,0,0,.18,0,.27.06s0,.09-.24.16l.17,0c.59,0,.34,0,0,.07s-.68,0-.53.08a3.55,3.55,0,0,0-.41,0c-.17,0-.2.07-.22.14a1.06,1.06,0,0,1-.12.31L20.5,155c-.27,0-.41.14-.59.16.07.12,0,.16.15.27-.13,0-.21-.06-.29-.06a1,1,0,0,0-.28.11,1.68,1.68,0,0,0-.41.39c-.22.33-.39.65-.88.63.07,0,.08-.22,0-.17a3.5,3.5,0,0,0-.37.49c.19.14.15,0,.36.09a.5.5,0,0,1-.1.45c.07-.29-.26-.26-.43-.27.06,0,.09.12.15.16-.52-.06.29.37-.2.47l-.07-.1c-.06.16-.05.36-.17.47-.25-.12,0-.21-.15-.36-.15.2.1.69-.24.69,0-.12.09-.24.1-.37-.39,0-.35.07-.49.18h0l-.36.25.13,0c.38.63-.26.57-.06,1.17-.18-.56-.18-.19-.43-.37-.12.05-.28.15-.33.06.11.29-.34.2-.16.61-.09,0-.11.18-.31,0,0,.26.18,0,.28.09.13.48-.72.7-.51,1.39,0,.51.32.7.36,1.15-.18.1-.31-.21-.31-.21a.57.57,0,0,0-.16.62c-.08-.06-.16,0-.28,0s.32.19.12.39a1.19,1.19,0,0,1-.34-.26,4.83,4.83,0,0,0,.22.71c-.17,0-.23-.18-.33-.28,0,.27.07.67.32.79l.12-.14c0,.09-.24,0-.28-.07-.18-.24.13-.29.23-.28l0,.16c.3,0,.29-.18.23-.37s-.16-.41-.1-.56l.37.22-.26-.39c.12,0,.36,0,.38.14.26-.17-.09-.23.18-.35,0,0,0,0,.06,0l-.06-.23c.07.06.29,0,.2.15.32-.29-.16-.68.2-.71l0,0c.06-.53-.28-.14-.46-.64l.8,0-.27-.16c0-.05.1-.14.2-.07-.12-.27-.13,0-.27-.21.17-.07.21-.25.26-.4a.25.25,0,0,1,.38-.15c-.16-.19-.28.13-.28-.19.5.18.08-.32.4-.42.2.2,0,.32.29.24-.32-.35.31-.34.33-.55-.29-.21.13-.42.24-.76.08.09.51-.39.84-.49l0,0c-.23-.29,0-.47.15-.69a.44.44,0,0,1,.16.41l.15-.15a.32.32,0,0,1,0-.34l.14.24c.2-.19.23-.61.63-.7-.13-.22-.67-.37-.46-.77.1.11.25.29.21.4,0,0,0-.17.11-.17l0,.29c.19,0-.05-.22.07-.28.12.16.17.06.24.2s-.14,0-.14.09a.58.58,0,0,1,.5,0c-.07-.09-.15-.22-.07-.3s.21.14.41.14c-.06-.13.29-.19.11-.43.11-.05.22,0,.32.08.13-.2,1-.49.41-.58h-.07l0,0h0a.87.87,0,0,1,.52-.36c.28-.07.67-.12,1-.2.17-.07.28-.16.3-.26l.2,0c0-.15.3-.3.14-.39a2.33,2.33,0,0,1,.56-.05c0-.07-.05-.07.35-.17,0,.06.21,0,0,.06.29-.1.42-.12.38-.17a.58.58,0,0,0,.35-.08l-.21.05a.82.82,0,0,1,.25-.07h.11a1.6,1.6,0,0,1,.24-.06s-.41,0-.31-.1c-.21,0,.07,0-.11,0s0-.09,0-.11-.61,0-.72,0a3.52,3.52,0,0,1-.88.06c-.2-.07.51-.27.75-.21.05,0,0,.06-.05.06.12,0,.24.09.37,0h-.19c.1-.1-.08-.31.29-.33-.27-.09-.38,0-.4.13.14-.27-.26-.29-.19-.57-.11.08-.38.2-.41.17s0-.12-.05-.13c-.51,0-.77.19-1.35.18,0-.23.85-.3,0-.34-.17-.19.38-.27.71-.3a1.26,1.26,0,0,1-.86-.21,2.31,2.31,0,0,0-.46-.33h.45a3,3,0,0,1-.62-.09,2.29,2.29,0,0,1,0,.25c-.15-.09-.32-.13-.23-.21-.31.08-.2.37-.69.46-.12-.16-.73-.05-.55-.36a.23.23,0,0,0,.22.07c.05,0,.06,0,.07-.1s0-.22.37-.15a.85.85,0,0,1-.45-.13s0,0,.08-.06c-.2-.44-.31.23-.65,0,.13-.13.1-.33,0-.33.13.08-.08.29-.28.33-.14-.24-.29-.05-.4-.13l.1.13c-.14.12-.24,0-.43,0,.06-.13.19,0,.17-.08-.37.16-.17-.53-.51-.54,0-.17.2-.27.17-.4-.38,0-.09-.39-.45-.45-.1.23,0,.2-.38.22l.52.22-.49,0c.12.11.36.11.41.2-.25,0-.21,0-.27.21.07-.42-.5-.14-.53-.5l.43-.41c-.05-.47-.67-.31-.89-.79l0,.19c-.23.09-.25-.21-.41-.3.17-.1.17-.23.23-.36-.11.09-.19-.31-.54-.13l.09-.33c-.13-.4-.76-.1-.88-.5.24,0,.28-.23.54-.06-.06-.12-.08-.25-.2-.18.07-.13-.41-.21-.3-.41-.1,0-.3.07-.35-.08a.2.2,0,0,1,.09,0c-.09.05-.23-.15-.37.06.37-.63-.5-1.09-.15-1.62a5.4,5.4,0,0,1-.42-.83c.06,0,.09,0,.09,0,.07-.4-.62,0-.54-.53.26-.29.22.18.31,0,.61-.22-.21-.47.09-.84l0,.06c.16-.26-.37-.46-.38-.83a.19.19,0,0,0,.1,0,1.72,1.72,0,0,1-.7-1c.26.07.15.14.4,0-.06-.14-.41.11-.52-.19.12-.12.21-.36.48-.42l.06.28c.33-.19-.07-.36,0-.52h.16c-.1-.43-.49-.41-.49-.88l-.11,0C13,140.1,13,140,13,140h-.61c-.05.09-.26.13-.08.31l-.4.07a4,4,0,0,1,.41.94,2.92,2.92,0,0,1-.57-.79c0,.17,0,.58.18.67,0-.07-.12-.16-.06-.22a.92.92,0,0,1,.41.86c-.76-.13-.22.89-.88,1.05.17.62-.31,1.13-.4,1.79.65-.09,0,.19.57.31,0,.16,0,.22-.08.22l-.5.36c-.2.06-.08-.18-.22-.21-.14.31-.29.06-.51.22.22,0,.26.21.13.37l.35-.17c.15.56-.58.23-.47.77l-.12-.2c0,.25-.37.76,0,1.21-.08,0-.25,0-.25-.14a1.15,1.15,0,0,0-.15.43c-.05.14-.09.3-.13.45-.09.31-.19.6-.44.69l-.09-.13c0,.11.12.34-.09.34,0,0-.09-.13-.13-.1s0,.38-.15.42l0-.2c-.52.25-.25.94-.59,1.3a.79.79,0,0,0-.91-.11l0-.05a2.32,2.32,0,0,0-.6.61,2.74,2.74,0,0,1-.58.7,1.14,1.14,0,0,0-.9.05A3.08,3.08,0,0,1,4,152c.1,0,.07.34,0,.4s-.33.38-.39,0h0c-.19-.37-.44-.19-.67-.18l0,.53c-.69-.66-1.59.44-1.94-.26-.13.13-.32.12-.44.24l0-.28h0L.5,155a2.88,2.88,0,0,0,1,.07l-.12.19c.28,0,.42-.77.7-.76l0,.43c.5,0,.89.52,1.45.24,0,.06-.07.17-.15.17.22.07.75.52.85-.06-.1.35.46.21.77.15l-.14.25c.34-.25.4-.35.72-.29.06.07,0,.23-.09.12.16.24.29-.15.5.12l-.18.11c.22.13.25,0,.47-.07s.4.32.29.55c.11-.11.35-.22.44-.06a.21.21,0,0,1-.16.12c.24.41.73.11.79.52a.33.33,0,0,0-.07.16c-.25-.23-.48-.38-.44-.39-.15.21,0,.4-.34.56.28,0,.83-.13,1,.14a.47.47,0,0,1,0,.09h0a.15.15,0,0,0,.15.08.82.82,0,0,0,.11.21c-.12.17.14.3.23.4.19-.21.28-.05.33-.33,0,0,0,0-.12-.05s0,0-.06,0h0l-.26-.23c.17,0,.34,0,.34.19a4.58,4.58,0,0,1,.47-.18c-.14.4-.07.83-.21,1,.4.2.69.7,1.28.61.13.06,0,.2-.09.29s-.12-.1-.2-.09c.24.12.45.56.79.42,0,.36-.38,0-.11.37H10.3c-.09,1,1.51.76,1.22,2,0-.08,0-.12.08-.16.12,1.1,1.1,2,.86,3.18,0,.32.21.29.42.43l-.27.14.41.23c.34.4-.57.91,0,1.38l.19-.11c0,.21.22.63,0,.63,0,0,.22,0,.12.13l-.15,0,.33.47c-.08.4-.63,0-.61.56.08.2.5.55.6.47a.3.3,0,0,1,.25-.24l.09.19c.46,0,1,.17,1.25-.38l-.32-.34.22-.13,0,.3c.19-.19,0-.29-.14-.39a.39.39,0,0,0,.23-.18l-.48-.29c.17-.07.37.11.44-.14-.22-.13-.38.21-.55,0,.19-.19.36-.17.16-.34a.21.21,0,0,1,.26.06c-.17-.16-.13-.46-.39-.51.23-.22-.17-.57.26-.63a1,1,0,0,1-.44-.4c.57.18-.1-.6.47-.65-.51-.11-.39-.73-.75-1,0,0,.12,0,.11.08,0-.23.1-.33.15-.49-.39.08-.57-.22-.86-.32.28-.37.49,0,.81-.17-.29.1-.45-.35-.67-.18.16-.27.05-.21.33-.41-.48.12-.14-.16-.49-.22.13-.36.41-.23.15-.49C13.7,161.81,14,162,14,162Zm-5.07-6.13h0L9,156Zm-.51-.43.22.19c0,.09-.13.15-.18.11S8.41,155.59,8.38,155.46Zm-.3,2.33c-.09,0-.07-.1,0-.15l.13.09,0,0Z" transform="translate(-0.37)"/><path class="cls-6" d="M8.45,157.64H8.5v-.08l-.08,0Z" transform="translate(-0.37)"/><path class="cls-6" d="M21.3,155.75h0Z" transform="translate(-0.37)"/><polygon class="cls-6" points="0.82 154.99 0.82 154.92 0.76 154.98 0.82 154.99"/><path class="cls-6" d="M17.69,157.13l-.09,0S17.65,157.13,17.69,157.13Z" transform="translate(-0.37)"/><path class="cls-6" d="M16.62,158.27l-.22.12A.72.72,0,0,0,16.62,158.27Z" transform="translate(-0.37)"/><path class="cls-6" d="M15.82,159.2l.09.08h0Z" transform="translate(-0.37)"/><path class="cls-6" d="M18,153.25H18C17.83,153.23,17.9,153.25,18,153.25Z" transform="translate(-0.37)"/><path class="cls-6" d="M22.51,154.15l-.48,0S22.07,154.21,22.51,154.15Z" transform="translate(-0.37)"/><polygon class="cls-6" points="13.07 148.47 13.08 148.47 13.06 148.44 13.07 148.47"/><path class="cls-6" d="M21.88,154.18c-.08,0,0,0,.15,0C22,154.18,22,154.18,21.88,154.18Z" transform="translate(-0.37)"/><path class="cls-6" d="M14,164.1l0,.06h0Z" transform="translate(-0.37)"/><path class="cls-6" d="M14,164.17l0,.07S14,164.18,14,164.17Z" transform="translate(-0.37)"/><path class="cls-6" d="M14.09,164.38l-.05-.14A.11.11,0,0,0,14.09,164.38Z" transform="translate(-0.37)"/><path class="cls-6" d="M14.44,162.57l-.09,0S14.39,162.55,14.44,162.57Z" transform="translate(-0.37)"/><path class="cls-6" d="M14.53,162.09c0,.1-.28.22-.26.4l.08,0C14.22,162.41,14.67,162.24,14.53,162.09Z" transform="translate(-0.37)"/><path class="cls-6" d="M16.38,160.72l-.21.31c.12,0,.29,0,.25.13C16.89,160.87,16.16,161.15,16.38,160.72Z" transform="translate(-0.37)"/><path class="cls-6" d="M17.08,159.81c-.06.19.13.08.18.12C17.23,159.77,17.23,159.73,17.08,159.81Z" transform="translate(-0.37)"/><path class="cls-6" d="M24.19,154.47h.34C24.55,154.42,24.4,154.47,24.19,154.47Z" transform="translate(-0.37)"/><polygon class="cls-6" points="22.17 154.3 21.54 154.36 22.3 154.31 22.17 154.3"/><polygon class="cls-6" points="24.99 154 25.02 154.01 24.91 153.99 24.99 154"/><path class="cls-6" d="M15,145.92l-.27.16C14.82,146.15,15.16,146,15,145.92Z" transform="translate(-0.37)"/><path class="cls-6" d="M13.45,140.16a.26.26,0,0,0,.17-.17l-1.81,0a.14.14,0,0,0,.06.16.46.46,0,0,1,.07-.16l1.55,0C13.46,140.06,13.42,140.12,13.45,140.16Z" transform="translate(-0.37)"/><polygon class="cls-6" points="2.32 152.37 2.42 152.25 2.22 152.36 2.32 152.37"/></g></g></svg>