<svg xmlns="http://www.w3.org/2000/svg" viewBox="0 0 30.34 30.41"><defs><style>.cls-1,.cls-3{fill:#fff;}.cls-2,.cls-4{fill:none;}.cls-2,.cls-3{stroke:#000;stroke-linecap:round;}.cls-2{stroke-miterlimit:10;}.cls-3{stroke-linejoin:round;}</style></defs><title>icon-marketing</title><g id="Layer_2" data-name="Layer 2"><g id="Layer_1-2" data-name="Layer 1"><path d="M14,3.7A12.79,12.79,0,1,1,1.21,16.48,12.8,12.8,0,0,1,14,3.7m0-1A13.79,13.79,0,1,0,27.77,16.48,13.78,13.78,0,0,0,14,2.7Z"/><path d="M14,8.91a7.57,7.57,0,1,1-7.57,7.57A7.58,7.58,0,0,1,14,8.91m0-1a8.57,8.57,0,1,0,8.57,8.57A8.57,8.57,0,0,0,14,7.91Z"/><path d="M14,13.77a2.72,2.72,0,1,1-2.72,2.71A2.71,2.71,0,0,1,14,13.77m0-1a3.72,3.72,0,1,0,3.71,3.71A3.72,3.72,0,0,0,14,12.77Z"/><rect class="cls-1" x="10.97" y="9.72" width="16.44" height="3.13" transform="translate(-2.36 16.87) rotate(-45)"/><rect class="cls-1" x="20.99" y="2.72" width="4.6" height="8.56" transform="translate(1.87 18.51) rotate(-45)"/><line class="cls-2" x1="13.99" y1="16.48" x2="25.84" y2="4.63"/><polygon class="cls-3" points="25.09 8.73 22.02 8.32 21.62 5.25 26.37 0.5 26.78 3.56 29.84 3.97 25.09 8.73"/><rect class="cls-4" y="0.36" width="30.05" height="30.05"/></g></g></svg>