<svg xmlns="http://www.w3.org/2000/svg" viewBox="0 0 753.21 316.33"><defs><style>.cls-1{opacity:0.05;}.cls-2{fill:#2e2e3f;}</style></defs><title>decoration-skills</title><g id="Layer_2" data-name="Layer 2"><g id="Layer_1-2" data-name="Layer 1"><g class="cls-1"><path class="cls-2" d="M116.45,94.88c0,20.38-19.6,41.14-55.25,41.16-41.35,0-59.08-23.29-61.2-41.65L30.59,88c1.27,11.93,10.55,21.45,31,21.43,13.08,0,23.93-4.57,23.93-12.65,0-6.61-9-11.38-18.88-13l-20.47-3.3C20.87,76.2,5.47,61.52,5.46,42.25,5.44,17.64,30.33.37,59,.36,96.35.33,110.5,19.79,113.67,35L83.72,42.39C82.67,36.33,77,27,58.82,27c-12.45,0-23.3,5.86-23.3,13,0,6.24,7.28,10.82,17.62,12.47l20,3.29C101.66,60.37,116.44,76.33,116.45,94.88Zm-1.9,0a31.72,31.72,0,0,0-10.36-23.41c-7.29-6.91-18.12-11.68-31.31-13.8l-20-3.3C41,52.49,33.63,47,33.63,40c0-8.22,11.29-14.91,25.19-14.92,10.88,0,23.16,4,26.32,15l26.26-6.46A38,38,0,0,0,98,13.46C88.52,6,75.41,2.24,59,2.25c-13.79,0-26.72,4-36.41,11.34C12.77,21,7.35,31.2,7.35,42.25c0,18.37,15,32.28,39.15,36.29L67,81.83c15.11,2.51,20.47,9.6,20.48,14.9,0,8.69-10.38,14.54-25.83,14.55-25,0-31.15-13.41-32.6-21.06L2.13,95.88c1.54,9.2,6.93,18.15,15,24.76,10.74,8.84,26,13.51,44.1,13.5,20.4,0,32.9-6.81,39.79-12.51C109.62,114.5,114.56,104.75,114.55,94.88Z"/><path class="cls-2" d="M211.76,68.11l42.94,64.64H222.87L188.66,82H166.44l0,50.8-27.71,0L138.69,3.49H166.4l0,50.8h22.29L222.8,3.45l31.83,0Zm-1.58,1-.69-1,.69-1L251.1,5.33H223.81l-33.53,50-.56.84-25.19,0,0-50.81-23.92,0,.07,125.52h23.92l0-50.8,25.13,0,.57.84,33.64,50,27.29,0Z"/><path class="cls-2" d="M331.78,31.1l0,73.89,37.72,0,0,27.71-103.15.06,0-27.71,37.72,0,0-73.9-37.72,0V3.42l103.14-.06,0,27.72Zm-1.85,75.79,0-77.69,37.71,0V5.26l-99.36.06,0,23.92,37.72,0,0,77.68-37.72,0v23.92l99.36-.05V106.87Z"/><path class="cls-2" d="M498.69,104.9v27.71l-107.23.06L391.4,3.35h27.71l.06,101.6Zm-1.9,1.89-79.52,0,0-101.61-23.92,0,.07,125.52,103.44-.06Z"/><path class="cls-2" d="M623.57,104.83v27.71l-107.23.06L516.28,3.28H544l.06,101.6Zm-1.9,1.89-79.51,0L542.1,5.16H518.18l.07,125.53,103.44-.06Z"/><path class="cls-2" d="M751,94.52c0,20.38-19.59,41.14-55.25,41.16-41.34,0-59.08-23.28-61.2-41.64l30.59-6.45c1.27,11.94,10.56,21.45,31,21.44,13.08,0,23.94-4.57,23.93-12.65,0-6.61-9-11.38-18.88-13l-20.47-3.29C655.44,75.85,640,61.17,640,41.89,640,17.29,664.89,0,693.58,0c37.34,0,51.48,19.43,54.66,34.67l-30,7.36c-1.06-6.06-6.76-15.39-24.91-15.38-12.44,0-23.3,5.86-23.29,13,0,6.24,7.27,10.83,17.61,12.48l20,3.29C736.22,60,751,76,751,94.52Zm-1.89,0a31.73,31.73,0,0,0-10.37-23.4c-7.29-6.92-18.12-11.69-31.31-13.81L687.39,54c-11.83-1.89-19.2-7.39-19.2-14.35,0-8.21,11.3-14.91,25.19-14.91,10.88,0,23.17,4,26.32,15L746,33.28A38,38,0,0,0,732.55,13.1c-9.47-7.44-22.58-11.22-39-11.21-13.79,0-26.72,4-36.4,11.35-9.85,7.43-15.27,17.6-15.27,28.65,0,18.38,15,32.28,39.16,36.3l20.45,3.29C716.63,84,722,91.07,722,96.38c0,8.69-10.38,14.53-25.83,14.54-25,0-31.14-13.4-32.6-21.06l-26.88,5.67c1.54,9.2,6.93,18.14,15,24.76,10.74,8.84,26,13.51,44.1,13.5,20.41,0,32.9-6.81,39.79-12.51C744.18,114.14,749.12,104.39,749.12,94.52Z"/><path class="cls-2" d="M94.21,238.58v27.71l-32.61,0,0,32.7-27.71,0,0-32.7-32.7,0V238.63h32.7l0-32.61,27.71,0,0,32.61Zm-1.9,1.9-32.61,0V207.89H35.77v32.61l-32.69,0v23.92l32.7,0,0,32.7H59.74l0-32.7,32.6,0Z"/><path class="cls-2" d="M226.28,275.17c0,20.38-19.59,41.14-55.25,41.16-41.34,0-59.08-23.29-61.2-41.65l30.59-6.44c1.27,11.93,10.56,21.45,31,21.43,13.08,0,23.94-4.57,23.93-12.65,0-6.61-9-11.38-18.88-13L156,260.7c-25.31-4.21-40.72-18.89-40.73-38.16,0-24.61,24.87-41.88,53.56-41.89,37.34,0,51.48,19.43,54.66,34.67l-29.95,7.36c-1.06-6.06-6.76-15.39-24.91-15.38-12.44,0-23.3,5.86-23.29,13,0,6.24,7.27,10.82,17.61,12.47l20,3.29C211.5,240.66,226.27,256.62,226.28,275.17Zm-1.89,0A31.77,31.77,0,0,0,214,251.76c-7.29-6.91-18.12-11.68-31.31-13.8l-20.05-3.3c-11.83-1.88-19.2-7.38-19.2-14.34,0-8.22,11.3-14.91,25.19-14.92,10.88,0,23.17,4,26.32,15l26.26-6.46a38,38,0,0,0-13.41-20.17c-9.47-7.45-22.58-11.22-39-11.21-13.79,0-26.72,4-36.4,11.34-9.85,7.43-15.27,17.61-15.26,28.66,0,18.37,15,32.28,39.15,36.29l20.45,3.3c15.11,2.51,20.48,9.59,20.48,14.89,0,8.69-10.37,14.54-25.83,14.55-25,0-31.14-13.41-32.6-21.06L112,276.17c1.54,9.21,6.93,18.15,15,24.76,10.74,8.84,26,13.51,44.1,13.5,20.41,0,32.9-6.81,39.79-12.51C219.45,294.79,224.39,285,224.39,275.17Z"/><path class="cls-2" d="M355.82,183.72l0,27.71-44.92,0,.05,101.6-27.71,0-.06-101.61-45,0,0-27.71Zm-1.89,1.9-113.86.06V209.6l45,0,.06,101.6h23.92L309,209.57l44.92,0Z"/><path class="cls-2" d="M477.86,313l-28.54,0L442,291.19l-59,0L375.78,313H347.24L389,183.71l47,0Zm-27.18-1.88h24.58L434.61,185.57l-44.26,0L349.84,311.15l24.57,0,6.84-20.5.43-1.3,61.71,0,.44,1.29Zm-16.12-48.2.83,2.49-45.73,0,.83-2.5,17.36-52.1.44-1.3h8.41l.43,1.29Zm-1.8.6L415.33,211.4h-5.68l-17.37,52.11Z"/><path class="cls-2" d="M588.24,267.56l28.66,3.63a67.83,67.83,0,1,1,0-45.91L588.21,229a40.12,40.12,0,1,0,0,38.61Zm1,2a42,42,0,1,1,0-42.69l25-3.2a65.95,65.95,0,1,0,0,49Z"/><path class="cls-2" d="M710.27,248.18l42.94,64.64H721.38l-34.2-50.78H665l0,50.81H637.27l-.07-129.31,27.71,0,0,50.8h22.28l34.09-50.82,31.83,0Zm-1.58,1-.69-1,.69-1,40.92-61.74H722.32l-33.53,50-.56.84H663l0-50.8H639.09L639.17,311l23.92,0,0-50.8h25.13l.56.83,33.64,49.95,27.29,0Z"/></g></g></g></svg>