<svg class="lds-spinner" width="199px"  height="199px"  xmlns="http://www.w3.org/2000/svg" xmlns:xlink="http://www.w3.org/1999/xlink" viewBox="0 0 100 100" preserveAspectRatio="xMidYMid"><g transform="rotate(0 50 50)">
  <rect x="48.5" y="33.5" rx="9.700000000000001" ry="6.7" width="3" height="9" fill="#e8e8e8">
    <animate attributeName="opacity" values="1;0" times="0;1" dur="1.4s" begin="-1.26s" repeatCount="indefinite"></animate>
  </rect>
</g><g transform="rotate(36 50 50)">
  <rect x="48.5" y="33.5" rx="9.700000000000001" ry="6.7" width="3" height="9" fill="#e8e8e8">
    <animate attributeName="opacity" values="1;0" times="0;1" dur="1.4s" begin="-1.1199999999999999s" repeatCount="indefinite"></animate>
  </rect>
</g><g transform="rotate(72 50 50)">
  <rect x="48.5" y="33.5" rx="9.700000000000001" ry="6.7" width="3" height="9" fill="#e8e8e8">
    <animate attributeName="opacity" values="1;0" times="0;1" dur="1.4s" begin="-0.9799999999999999s" repeatCount="indefinite"></animate>
  </rect>
</g><g transform="rotate(108 50 50)">
  <rect x="48.5" y="33.5" rx="9.700000000000001" ry="6.7" width="3" height="9" fill="#e8e8e8">
    <animate attributeName="opacity" values="1;0" times="0;1" dur="1.4s" begin="-0.8399999999999999s" repeatCount="indefinite"></animate>
  </rect>
</g><g transform="rotate(144 50 50)">
  <rect x="48.5" y="33.5" rx="9.700000000000001" ry="6.7" width="3" height="9" fill="#e8e8e8">
    <animate attributeName="opacity" values="1;0" times="0;1" dur="1.4s" begin="-0.7s" repeatCount="indefinite"></animate>
  </rect>
</g><g transform="rotate(180 50 50)">
  <rect x="48.5" y="33.5" rx="9.700000000000001" ry="6.7" width="3" height="9" fill="#e8e8e8">
    <animate attributeName="opacity" values="1;0" times="0;1" dur="1.4s" begin="-0.5599999999999999s" repeatCount="indefinite"></animate>
  </rect>
</g><g transform="rotate(216 50 50)">
  <rect x="48.5" y="33.5" rx="9.700000000000001" ry="6.7" width="3" height="9" fill="#e8e8e8">
    <animate attributeName="opacity" values="1;0" times="0;1" dur="1.4s" begin="-0.41999999999999993s" repeatCount="indefinite"></animate>
  </rect>
</g><g transform="rotate(252 50 50)">
  <rect x="48.5" y="33.5" rx="9.700000000000001" ry="6.7" width="3" height="9" fill="#e8e8e8">
    <animate attributeName="opacity" values="1;0" times="0;1" dur="1.4s" begin="-0.27999999999999997s" repeatCount="indefinite"></animate>
  </rect>
</g><g transform="rotate(288 50 50)">
  <rect x="48.5" y="33.5" rx="9.700000000000001" ry="6.7" width="3" height="9" fill="#e8e8e8">
    <animate attributeName="opacity" values="1;0" times="0;1" dur="1.4s" begin="-0.13999999999999999s" repeatCount="indefinite"></animate>
  </rect>
</g><g transform="rotate(324 50 50)">
  <rect x="48.5" y="33.5" rx="9.700000000000001" ry="6.7" width="3" height="9" fill="#e8e8e8">
    <animate attributeName="opacity" values="1;0" times="0;1" dur="1.4s" begin="0s" repeatCount="indefinite"></animate>
  </rect>
</g></svg>